<?xml version="1.0" encoding="UTF-8" standalone="no"?>
<!-- Created with Inkscape (http://www.inkscape.org/) -->

<svg
   xmlns:dc="http://purl.org/dc/elements/1.1/"
   xmlns:cc="http://creativecommons.org/ns#"
   xmlns:rdf="http://www.w3.org/1999/02/22-rdf-syntax-ns#"
   xmlns:svg="http://www.w3.org/2000/svg"
   xmlns="http://www.w3.org/2000/svg"
   xmlns:sodipodi="http://sodipodi.sourceforge.net/DTD/sodipodi-0.dtd"
   xmlns:inkscape="http://www.inkscape.org/namespaces/inkscape"
   width="32"
   height="32"
   viewBox="0 0 8.4666665 8.4666669"
   version="1.1"
   id="svg837"
   inkscape:version="0.92.4 (5da689c313, 2019-01-14)"
   sodipodi:docname="full-color-logo.svg">
  <defs
     id="defs831" />
  <sodipodi:namedview
     id="base"
     pagecolor="#ffffff"
     bordercolor="#666666"
     borderopacity="1.0"
     inkscape:pageopacity="0.0"
     inkscape:pageshadow="2"
     inkscape:zoom="11.2"
     inkscape:cx="43.551816"
     inkscape:cy="12.121389"
     inkscape:document-units="mm"
     inkscape:current-layer="layer1"
     showgrid="false"
     units="px"
     inkscape:window-width="1366"
     inkscape:window-height="705"
     inkscape:window-x="-8"
     inkscape:window-y="-8"
     inkscape:window-maximized="1"
     inkscape:snap-global="false" />
  <metadata
     id="metadata834">
    <rdf:RDF>
      <cc:Work
         rdf:about="">
        <dc:format>image/svg+xml</dc:format>
        <dc:type
           rdf:resource="http://purl.org/dc/dcmitype/StillImage" />
        <dc:title />
      </cc:Work>
    </rdf:RDF>
  </metadata>
  <g
     inkscape:label="Layer 1"
     inkscape:groupmode="layer"
     id="layer1"
     transform="translate(0,-288.53332)">
    <path
       transform="translate(0,9.1666667e-6)"
       style="fill:#ffffff;stroke:none;stroke-width:0.26458332px;stroke-linecap:butt;stroke-linejoin:miter;stroke-opacity:1;fill-opacity:1"
       d="m 3.6207805,292.90676 0.223946,0.2485 0.2244233,0.1004 0.2480469,-0.0768 0.2303293,-0.18308 0.147647,-0.19489 0.1063056,-0.14765 0.023625,-0.0472 -0.1063059,0.0118 -0.1240234,0.0473 -0.2185173,0.0591 -0.3543528,0.0591 -0.3484467,0.0236 h -0.076778 l -0.047247,0.0118 z"
       id="path827"
       inkscape:connector-curvature="0" />
  </g>
  <g
     inkscape:groupmode="layer"
     id="layer2"
     inkscape:label="Layer 2">
    <path
       transform="translate(0,-288.53331)"
       style="fill:#ffffff;stroke:#000000;stroke-width:0.10422118;stroke-linecap:butt;stroke-linejoin:miter;stroke-miterlimit:4;stroke-dasharray:none;stroke-opacity:1;fill-opacity:1"
       d="m 3.1572242,288.7185 c 0,0 1.0825334,-0.16038 1.6438477,0.16037 0.5613137,0.32075 0.9221587,0.88206 1.0825337,1.26296 0.160375,0.38089 0.160375,1.56366 -0.6615485,2.18512 -0.8219236,0.62145 -1.7440823,0.48112 -2.2853496,0.40093 -0.5412672,-0.0802 -1.1827688,-0.9422 -1.2228622,-1.42333 -0.040094,-0.48113 0.1202815,-1.20281 0.3207507,-1.72404 0.2004693,-0.52121 1.0624873,-0.86201 1.1226282,-0.86201 z"
       id="path4680"
       inkscape:connector-curvature="0" />
    <path
       transform="translate(0,-288.53331)"
       style="fill:none;stroke:#000000;stroke-width:0.10422118;stroke-linecap:butt;stroke-linejoin:miter;stroke-miterlimit:4;stroke-dasharray:none;stroke-opacity:1"
       d="m 2.8549721,291.56613 0.7254401,-0.12667 0.5527165,-0.37999 0.5642316,-0.5412 0.2763578,0.12667 0.2302981,0.17272 0.057575,0.28787 -0.02303,0.4606 -0.080604,0.21878 -0.207269,0.2303 -0.2302984,0.16121 -0.2302983,0.0921 -0.2418144,0.0345 -0.4721119,-0.0345 -0.4951418,-0.13818 -0.3454471,-0.21879 -0.2072684,-0.23029"
       id="path4694"
       inkscape:connector-curvature="0" />
    <path
       transform="translate(0,-288.53331)"
       style="fill:none;stroke:#000000;stroke-width:0.10422118;stroke-linecap:butt;stroke-linejoin:miter;stroke-miterlimit:4;stroke-dasharray:none;stroke-opacity:1"
       d="m 4.2482775,291.83097 0.1496943,-0.0115 0.2302984,-0.11515 0.1842389,-0.19576 0.1036338,-0.12666 -0.023029,-0.10363"
       id="path4696"
       inkscape:connector-curvature="0" />
    <path
       transform="translate(0,-288.53331)"
       style="fill:none;stroke:#000000;stroke-width:0.10422118;stroke-linecap:butt;stroke-linejoin:miter;stroke-miterlimit:4;stroke-dasharray:none;stroke-opacity:1"
       d="m 4.5706958,291.25522 0.3569623,0.71393"
       id="path4698"
       inkscape:connector-curvature="0" />
    <path
       transform="translate(0,-288.53331)"
       style="fill:#000000;fill-opacity:1;stroke:#000000;stroke-width:0.05211059;stroke-linecap:butt;stroke-linejoin:miter;stroke-miterlimit:4;stroke-dasharray:none;stroke-opacity:1"
       d="m 4.6282702,291.41643 -0.069089,0.12667 0.034544,0.17272 0.1496941,-0.13818 z"
       id="path4700"
       inkscape:connector-curvature="0" />
    <path
       transform="translate(0,-288.53331)"
       style="fill:none;stroke:#000000;stroke-width:0.10422118;stroke-linecap:butt;stroke-linejoin:miter;stroke-miterlimit:4;stroke-dasharray:none;stroke-opacity:1"
       d="m 2.3943751,289.88495 c 0,0 0.2187834,-0.58726 0.6908954,-0.16121"
       id="path4702"
       inkscape:connector-curvature="0" />
    <path
       transform="translate(0,-288.53331)"
       style="fill:none;stroke:#000000;stroke-width:0.10422118;stroke-linecap:butt;stroke-linejoin:miter;stroke-miterlimit:4;stroke-dasharray:none;stroke-opacity:1"
       d="m 3.914345,289.59708 c 0,0 0.4836268,-0.72545 0.8405897,-0.0346"
       id="path4704"
       inkscape:connector-curvature="0" />
    <path
       transform="translate(0,-288.53331)"
       style="fill:#000000;fill-opacity:1;stroke:#000000;stroke-width:0.05211059;stroke-linecap:butt;stroke-linejoin:miter;stroke-miterlimit:4;stroke-dasharray:none;stroke-opacity:1"
       d="m 2.7628526,290.67948 c 0.1612094,-0.63332 0.2418139,-0.42605 0.2418139,-0.42605 0,0 0.126664,0.13817 0.080605,0.36847 -0.044922,0.23372 -0.060641,-0.20495 -0.3224184,0.0576 z"
       id="path4710"
       inkscape:connector-curvature="0"
       sodipodi:nodetypes="cccc" />
    <path
       transform="translate(0,-288.53331)"
       style="fill:#000000;fill-opacity:1;stroke:#000000;stroke-width:0.05211059;stroke-linecap:butt;stroke-linejoin:miter;stroke-miterlimit:4;stroke-dasharray:none;stroke-opacity:1"
       d="m 4.1676732,290.5413 c 0.034545,-0.95574 0.3339333,-0.48363 0.3339333,-0.48363 l 0.034544,0.19576 c 0,0 0.3224178,0.0921 0,0.0921 -0.3224181,0 -0.2187832,-0.0576 -0.3684776,0.19576 z"
       id="path4714"
       inkscape:connector-curvature="0" />
    <path
       transform="translate(0,-288.53331)"
       style="fill:#0a00fd;fill-opacity:1;stroke:#000000;stroke-width:0.15875003;stroke-linecap:butt;stroke-linejoin:miter;stroke-miterlimit:4;stroke-dasharray:none;stroke-opacity:1"
       d="m 3.6207805,292.90676 c 0,0 0.4305086,0.82514 1.094209,-0.14351 0.6637011,-0.96864 1.9731641,0.0718 1.9731641,0.0718 l 0.538135,0.46639 -0.394632,0.32288 -0.25113,0.62782 0.340819,1.09421 0.520198,0.6637 -0.914831,0.26907 -1.273587,0.50226 -0.8610175,0.0538 -0.1793785,-0.16145 -0.4125706,-0.96864 -0.6816384,-0.82514 -0.2152541,-0.93277 0.3049434,-0.287 -1.2735876,0.69957 -0.4484463,-0.50226 1.3094633,-1.14802 z"
       id="path3391"
       inkscape:connector-curvature="0" />
    <path
       transform="translate(0,-288.53331)"
       style="fill:#fbffff;fill-opacity:1;stroke:#000000;stroke-width:0.13229166;stroke-linecap:butt;stroke-linejoin:miter;stroke-miterlimit:4;stroke-dasharray:none;stroke-opacity:1"
       d="m 6.3293966,294.27003 1.829661,0.73545 0.143502,0.26907 -0.143502,0.30495 -0.394633,0.0538 -0.591949,-0.26907 -0.771328,-0.287 -0.304943,0.0897 -0.322882,-0.10762 -0.197316,-0.19732 -0.215254,-0.37669 0.07175,-0.21526 0.609886,-0.26907 0.03588,-0.34081 0.143503,-0.28701 0.143503,-0.0359 0.08969,0.2332 0.05381,0.69957 z"
       id="path4857"
       inkscape:connector-curvature="0" />
    <path
       transform="translate(0,-288.53331)"
       style="fill:#fbffff;fill-opacity:1;stroke:#000000;stroke-width:0.13229166;stroke-linecap:butt;stroke-linejoin:miter;stroke-miterlimit:4;stroke-dasharray:none;stroke-opacity:1"
       d="m 7.1186616,293.53458 -0.116034,-0.0866 -0.178644,0.16224 -0.297271,0.73151 1.632345,0.6637 -0.161441,-0.35875 -0.25113,-0.39464 -0.340819,-0.53813 z"
       id="path4859"
       inkscape:connector-curvature="0"
       sodipodi:nodetypes="ccccccccc" />
    <path
       transform="translate(0,-288.53331)"
       style="fill:#fbffff;fill-opacity:1;stroke:#000000;stroke-width:0.10583334;stroke-linecap:butt;stroke-linejoin:miter;stroke-miterlimit:4;stroke-dasharray:none;stroke-opacity:1"
       d="m 2.2036901,295.00548 0.484322,0.10763 0.3228813,-0.0897 0.3049437,-0.73545 -0.071752,-0.21525 -0.6637004,-0.12557 -0.4484463,-0.78926 -0.125565,-0.0359 -0.035876,0.17938 0.089689,0.50226 -0.071751,0.50226 -0.2331921,0.25113 -1.23771182,0.68164 -0.2152543,0.32288 -0.071751,0.16144 0.053814,0.25113 0.2331921,0.23319 0.4663842,-0.19732 0.53813562,-0.287 0.484322,-0.3767 0.3587571,-0.287 z"
       id="path4861"
       inkscape:connector-curvature="0"
       sodipodi:nodetypes="cccccccccccccccccccccc" />
    <path
       transform="translate(0,-288.53331)"
       style="fill:none;stroke:#000000;stroke-width:0.10583334;stroke-linecap:butt;stroke-linejoin:miter;stroke-miterlimit:4;stroke-dasharray:none;stroke-opacity:1"
       d="m 1.4682381,294.21622 -0.50225982,0.43051 -0.4663842,0.59195"
       id="path4863"
       inkscape:connector-curvature="0" />
    <path
       transform="translate(0,-288.53331)"
       style="fill:none;stroke:#000000;stroke-width:0.10583331;stroke-linecap:butt;stroke-linejoin:miter;stroke-miterlimit:4;stroke-dasharray:none;stroke-opacity:1"
       d="m 1.4323624,294.23416 0.1973164,-0.17938"
       id="path4865"
       inkscape:connector-curvature="0" />
  </g>
</svg>
