<?xml version="1.0" encoding="UTF-8" standalone="no"?>
<svg
   xmlns:dc="http://purl.org/dc/elements/1.1/"
   xmlns:cc="http://creativecommons.org/ns#"
   xmlns:rdf="http://www.w3.org/1999/02/22-rdf-syntax-ns#"
   xmlns:svg="http://www.w3.org/2000/svg"
   xmlns="http://www.w3.org/2000/svg"
   xmlns:xlink="http://www.w3.org/1999/xlink"
   xmlns:sodipodi="http://sodipodi.sourceforge.net/DTD/sodipodi-0.dtd"
   xmlns:inkscape="http://www.inkscape.org/namespaces/inkscape"
   version="1.1"
   preserveAspectRatio="xMidYMid meet"
   viewBox="90.528735 89.717138 16.383996 16.372304"
   width="16"
   height="16"
   id="svg4582"
   sodipodi:docname="small-black-logo.svg"
   inkscape:version="0.92.4 (5da689c313, 2019-01-14)">
  <metadata
     id="metadata4586">
    <rdf:RDF>
      <cc:Work
         rdf:about="">
        <dc:format>image/svg+xml</dc:format>
        <dc:type
           rdf:resource="http://purl.org/dc/dcmitype/StillImage" />
        <dc:title />
      </cc:Work>
    </rdf:RDF>
  </metadata>
  <sodipodi:namedview
     pagecolor="#ffffff"
     bordercolor="#666666"
     borderopacity="1"
     objecttolerance="10"
     gridtolerance="10"
     guidetolerance="10"
     inkscape:pageopacity="0"
     inkscape:pageshadow="2"
     inkscape:window-width="1366"
     inkscape:window-height="705"
     id="namedview4584"
     showgrid="false"
     units="px"
     inkscape:zoom="16"
     inkscape:cx="4.5121075"
     inkscape:cy="10.880273"
     inkscape:window-x="-8"
     inkscape:window-y="-8"
     inkscape:window-maximized="1"
     inkscape:current-layer="g4580" />
  <defs
     id="defs4476">
    <path
       d="m 171.44,93.31 15.01,3.55 10.97,9.47 7.46,12.81 3.55,10.56 -1.19,22.49 -7.39,11.54 -15.26,13 -24.39,2.97 -16.08,-3.84 -13.8,-12.13 -6.46,-20.71 3.5,-23.08 12.72,-19.23 15.29,-7.4 z"
       id="m5bPjclsQx"
       inkscape:connector-curvature="0" />
    <path
       d="m 164.64,185.78 6.8,2.44 8.88,-3.55 2.37,-7.94 -21.31,3.5 z"
       id="a3AqiFPD9l"
       inkscape:connector-curvature="0" />
    <path
       d="m 213.23,193.54 -2.37,7.1 0.89,2.37 -7.39,3.55 -6.94,4.73 0.72,3.55 3.55,4.74 4.44,5.91 5.62,1.19 h 9.17 l 11.54,4.73 8.88,3.85 6.51,1.77 7.1,-1.77 2.36,-5.33 -2.36,-5.62 -2.37,-4.73 -5.32,-9.47 -7.11,-10.36 -5.02,-5.32 -2.67,-1.78 -11.54,17.46 -1.48,-9.47 c 0.32,-2.8 0.32,-4.57 0,-5.32 -0.31,-0.75 -0.93,-2.26 -1.86,-4.51 z"
       id="b4AOeE8cne"
       inkscape:connector-curvature="0" />
    <path
       d="m 126.67,210.63 2.37,-2.66 0.89,-7.1 -1.78,-11.84 0.89,-3.25 3.25,1.48 7.4,14.49 9.47,2.07 5.03,2.37 1.18,3.55 -3.11,5.77 -1.03,6.07 -7.11,4.43 -5.02,-0.59 -6.81,-0.89 v 2.96 l -5.62,5.33 -13.01,9.47 c -6.32,2.71 -9.96,4.19 -10.95,4.43 -0.99,0.25 -2.96,0.74 -5.92,1.48 l -2.96,-3.55 -1.48,-4.14 1.48,-5.62 5.33,-8.88 7.69,-9.17 5.92,-5.03 8.28,-7.99 z"
       id="d2zQgeadrC"
       inkscape:connector-curvature="0" />
    <path
       d="m 126.08,192.88 h 2.96 v 14.2 l -2.96,3.55 -7.39,-10.95 z"
       id="e4jQKDpaH"
       inkscape:connector-curvature="0" />
    <path
       d="m 152.26,216.25 1.93,-4.44 v -5.92 l -2.96,-1.41 -6.17,-1.25 -5.96,-2.07 -6.81,-13.9 11.83,-10.53 7.11,2.24 10.06,2.37 4.73,5.92 8.83,1.18 6.56,-5.03 5.04,-8.88 8.86,-4.73 12.13,0.81 13.91,7.47 11.54,9.18 1.18,2.95 -13.31,18.35 -2.37,-18.35 -3.25,0.6 -3.26,4.14 -1.48,8.28 -8.58,3.85 -4.4,4.73 2.92,5.92 3.55,5.32 3.55,2.96 5.62,0.89 h 8.29 l 6.8,3.26 3.85,5.02 4.44,4.15 2.66,6.21 -7.1,2.66 -10.65,1.78 -12.43,4.73 -11.5,4.14 -10.97,2.37 h -9.2 l -3.7,-2.37 -5.5,-15.09 -7.65,-13.6 -8.14,-7.99 z"
       id="afGNGm4yZ"
       inkscape:connector-curvature="0" />
    <path
       d="m 129.94,192.18 0.16,0.83 0.16,0.81 0.14,0.78 0.13,0.76 0.12,0.73 0.11,0.71 0.1,0.69 0.09,0.67 0.07,0.65 0.07,0.62 0.05,0.61 0.05,0.59 0.03,0.57 0.02,0.55 0.01,0.54 v 0.52 l -0.01,0.51 -0.03,0.49 -0.03,0.48 -0.05,0.46 -0.06,0.45 -0.07,0.44 -0.08,0.43 -0.1,0.42 -0.1,0.4 -0.12,0.4 -0.13,0.39 -0.14,0.38 -0.15,0.38 -0.17,0.37 -0.17,0.36 -0.19,0.35 -0.21,0.36 -0.21,0.34 -0.23,0.35 -0.23,0.34 -0.26,0.34 -0.26,0.34 -0.14,0.19 -0.16,0.2 -0.17,0.2 -0.18,0.2 -0.19,0.21 -0.2,0.21 -0.21,0.21 -0.22,0.22 -0.22,0.22 -0.24,0.22 -0.24,0.22 -0.26,0.22 -0.25,0.23 -0.27,0.22 -0.27,0.23 -0.28,0.22 -0.29,0.23 -0.29,0.23 -0.29,0.22 -0.3,0.23 -0.31,0.22 -0.3,0.22 -0.31,0.22 -0.32,0.22 -0.32,0.22 -0.32,0.22 -0.32,0.21 -0.32,0.21 -0.32,0.2 -0.33,0.21 -0.32,0.2 -0.33,0.19 -0.32,0.19 -0.33,0.19 -0.32,0.18 -0.32,0.17 -0.32,0.18 -0.32,0.16 -0.31,0.16 -0.31,0.15 -1.47,0.73 -1.43,0.72 -1.38,0.71 -1.33,0.71 -1.28,0.71 -1.24,0.69 -1.19,0.7 -1.14,0.68 -1.09,0.68 -1.05,0.68 -1,0.67 -0.95,0.66 -0.91,0.66 -0.85,0.65 -0.81,0.65 -0.76,0.64 -0.72,0.63 -0.67,0.63 -0.62,0.62 -0.57,0.62 -0.52,0.61 -0.48,0.61 -0.43,0.59 -0.39,0.6 -0.33,0.58 -0.29,0.58 -0.24,0.58 -0.19,0.57 -0.15,0.56 -0.1,0.55 -0.05,0.55 v 0.55 l 0.04,0.53 0.09,0.53 0.14,0.53 0.19,0.52 0.23,0.51 0.28,0.5 0.33,0.5 0.37,0.49 2.53,3.06 6.52,-2.52 0.51,-0.2 0.52,-0.2 0.52,-0.21 0.52,-0.22 0.53,-0.23 0.53,-0.23 0.53,-0.25 0.54,-0.25 0.55,-0.26 0.55,-0.27 0.55,-0.28 0.55,-0.29 0.56,-0.3 0.57,-0.3 0.57,-0.31 0.57,-0.32 0.58,-0.33 0.58,-0.34 0.59,-0.35 0.59,-0.35 0.6,-0.37 0.6,-0.37 0.6,-0.38 0.61,-0.39 0.62,-0.39 0.62,-0.41 0.62,-0.41 0.63,-0.43 0.63,-0.43 0.64,-0.44 0.64,-0.45 0.65,-0.45 0.65,-0.47 0.66,-0.47 0.66,-0.49 0.66,-0.49 0.68,-0.5 0.67,-0.5 0.68,-0.52 0.69,-0.52 5.19,-4.13 -3.2,4.39 -0.41,0.54 -0.47,0.55 -0.52,0.57 -0.57,0.59 -0.61,0.59 -0.66,0.6 -0.7,0.62 -0.73,0.62 -0.77,0.62 -0.8,0.63 -0.83,0.63 -0.86,0.63 -0.88,0.64 -0.9,0.62 -0.92,0.63 -0.94,0.62 -0.95,0.61 -0.96,0.61 -0.97,0.59 -0.98,0.58 -0.98,0.57 -0.98,0.56 -0.98,0.54 -0.97,0.52 -0.96,0.5 -0.96,0.48 -0.94,0.45 -0.92,0.44 -0.91,0.41 -0.89,0.38 -0.86,0.35 -0.84,0.32 -0.81,0.29 -0.78,0.25 -0.74,0.22 -0.7,0.19 -0.67,0.14 -0.63,0.11 -0.58,0.06 -0.53,0.03 -0.23,-0.01 -0.23,-0.03 -0.24,-0.04 -0.23,-0.07 -0.23,-0.07 -0.23,-0.1 -0.23,-0.11 -0.23,-0.12 -0.23,-0.14 -0.23,-0.15 -0.23,-0.17 -0.22,-0.18 -0.22,-0.19 -0.22,-0.2 -0.21,-0.22 -0.21,-0.23 -0.2,-0.23 -0.2,-0.25 -0.2,-0.26 -0.19,-0.26 -0.18,-0.27 -0.18,-0.29 -0.17,-0.28 -0.17,-0.3 -0.16,-0.3 -0.15,-0.31 -0.14,-0.32 -0.13,-0.32 -0.13,-0.32 -0.11,-0.33 -0.11,-0.33 -0.1,-0.33 -0.08,-0.34 -0.08,-0.34 -0.07,-0.34 -0.05,-0.34 -0.04,-0.34 -0.04,-0.34 -0.01,-0.34 -0.01,-0.34 0.01,-0.36 0.03,-0.38 0.05,-0.39 0.07,-0.41 0.09,-0.43 0.11,-0.44 0.12,-0.45 0.15,-0.48 0.16,-0.48 0.18,-0.5 0.19,-0.51 0.22,-0.52 0.23,-0.54 0.25,-0.54 0.26,-0.56 0.28,-0.56 0.29,-0.58 0.31,-0.58 0.32,-0.59 0.34,-0.6 0.35,-0.6 0.36,-0.61 0.38,-0.62 0.39,-0.62 0.41,-0.62 0.41,-0.63 0.43,-0.64 0.44,-0.63 0.45,-0.64 0.46,-0.64 0.48,-0.64 0.48,-0.64 0.5,-0.64 0.5,-0.64 0.51,-0.63 0.52,-0.64 0.53,-0.63 0.54,-0.63 0.55,-0.63 0.56,-0.62 0.46,-0.51 0.46,-0.51 0.47,-0.49 0.47,-0.49 0.47,-0.48 0.47,-0.46 0.47,-0.46 0.47,-0.44 0.47,-0.44 0.47,-0.42 0.46,-0.41 0.47,-0.39 0.46,-0.38 0.45,-0.37 0.45,-0.36 0.45,-0.34 0.43,-0.33 0.44,-0.31 0.42,-0.29 0.42,-0.28 0.4,-0.27 0.4,-0.24 0.39,-0.23 0.38,-0.22 0.36,-0.19 0.36,-0.18 0.34,-0.16 0.33,-0.14 0.31,-0.12 0.3,-0.1 0.28,-0.08 0.27,-0.06 0.26,-0.04 0.23,-0.01 h 0.22 l 0.2,0.03 0.18,0.04 0.16,0.08 0.14,0.09 0.12,0.12 0.04,0.04 0.04,0.04 0.03,0.04 0.02,0.04 0.02,0.04 0.02,0.04 0.02,0.05 0.01,0.04 0.01,0.04 v 0.05 0.04 0.04 l -0.01,0.04 -0.01,0.05 -0.01,0.04 -0.01,0.04 -0.02,0.05 -0.03,0.04 -0.02,0.04 -0.03,0.05 -0.03,0.04 -0.04,0.04 -0.03,0.04 -0.04,0.04 -0.05,0.04 -0.04,0.04 -0.05,0.04 -0.05,0.04 -0.05,0.04 -0.06,0.04 -0.06,0.04 -0.06,0.04 -0.06,0.03 -0.07,0.04 -0.07,0.03 -0.07,0.04 -0.07,0.03 -0.07,0.03 -0.08,0.03 -0.08,0.03 -0.09,0.04 -0.1,0.05 -0.11,0.07 -0.13,0.07 -0.14,0.09 -0.15,0.1 -0.16,0.12 -0.18,0.13 -0.18,0.13 -0.2,0.15 -0.21,0.16 -0.21,0.18 -0.23,0.18 -0.24,0.19 -0.24,0.2 -0.26,0.22 -0.26,0.22 -0.27,0.23 -0.28,0.24 -0.29,0.24 -0.29,0.26 -0.3,0.26 -0.3,0.28 -0.32,0.27 -0.31,0.29 -0.33,0.29 -0.32,0.3 -0.33,0.31 -0.34,0.31 -0.34,0.32 -0.34,0.32 -0.35,0.33 -0.35,0.33 -0.35,0.34 -0.36,0.34 -0.35,0.34 -0.36,0.35 -0.36,0.35 -0.36,0.36 -0.35,0.36 -0.36,0.35 -0.35,0.35 -0.33,0.34 -0.33,0.34 -0.32,0.32 -0.3,0.32 -0.3,0.31 -0.29,0.3 -0.27,0.29 -0.27,0.29 -0.25,0.27 -0.25,0.26 -0.23,0.26 -0.22,0.25 -0.21,0.23 -0.2,0.23 -0.19,0.21 -0.18,0.21 -0.16,0.19 -0.15,0.18 -0.14,0.17 -0.12,0.16 -0.12,0.15 -0.1,0.14 -0.08,0.12 -0.08,0.12 -0.06,0.1 -0.04,0.08 -0.04,0.08 -0.01,0.06 -0.01,0.04 0.01,0.04 0.03,0.02 0.04,0.01 0.05,-0.01 0.07,-0.02 0.09,-0.04 0.1,-0.05 0.11,-0.07 0.13,-0.08 0.15,-0.1 0.16,-0.09 0.16,-0.11 0.18,-0.11 0.19,-0.12 0.2,-0.12 0.21,-0.13 0.22,-0.13 0.23,-0.14 0.24,-0.14 0.24,-0.14 0.26,-0.15 0.26,-0.16 0.27,-0.15 0.27,-0.16 0.28,-0.17 0.29,-0.16 0.3,-0.17 0.3,-0.17 0.3,-0.18 0.31,-0.17 0.31,-0.18 0.32,-0.18 0.32,-0.18 0.33,-0.18 0.32,-0.18 0.33,-0.19 0.34,-0.18 0.33,-0.18 0.34,-0.19 0.33,-0.18 0.34,-0.18 0.34,-0.18 0.33,-0.18 0.34,-0.18 0.34,-0.18 0.34,-0.18 0.33,-0.18 0.33,-0.17 0.33,-0.17 0.85,-0.43 0.81,-0.41 0.77,-0.4 0.73,-0.38 0.7,-0.37 0.65,-0.35 0.63,-0.34 0.58,-0.32 0.55,-0.32 0.52,-0.3 0.48,-0.29 0.45,-0.29 0.42,-0.27 0.38,-0.27 0.35,-0.26 0.32,-0.25 0.29,-0.25 0.27,-0.24 0.23,-0.24 0.2,-0.24 0.18,-0.23 0.15,-0.23 0.12,-0.24 0.09,-0.23 0.07,-0.23 0.05,-0.23 0.02,-0.23 v -0.24 l -0.03,-0.24 -0.05,-0.25 -0.07,-0.25 -0.09,-0.26 -0.12,-0.26 -0.13,-0.27 -0.15,-0.28 -0.17,-0.29 -0.19,-0.3 -0.21,-0.31 -0.23,-0.32 -0.24,-0.33 -0.12,-0.16 -0.12,-0.16 -0.13,-0.16 -0.13,-0.16 -0.13,-0.16 -0.13,-0.16 -0.14,-0.16 -0.14,-0.16 -0.14,-0.16 -0.14,-0.16 -0.14,-0.15 -0.14,-0.16 -0.15,-0.15 -0.14,-0.15 -0.15,-0.15 -0.15,-0.15 -0.14,-0.15 -0.15,-0.14 -0.15,-0.14 -0.14,-0.14 -0.15,-0.13 -0.15,-0.14 -0.14,-0.13 -0.15,-0.12 -0.14,-0.13 -0.15,-0.12 -0.14,-0.11 -0.14,-0.11 -0.14,-0.11 -0.14,-0.11 -0.13,-0.1 -0.14,-0.09 -0.13,-0.09 -0.13,-0.09 -0.12,-0.08 -0.13,-0.07 -0.12,-0.07 -0.12,-0.07 -0.11,-0.06 -0.11,-0.05 -0.19,-0.1 -0.17,-0.09 -0.16,-0.09 -0.15,-0.09 -0.14,-0.09 -0.13,-0.09 -0.12,-0.09 -0.1,-0.08 -0.1,-0.09 -0.08,-0.09 -0.06,-0.08 -0.06,-0.09 -0.04,-0.09 -0.03,-0.1 -0.01,-0.09 v -0.1 l 0.01,-0.11 0.03,-0.1 0.04,-0.12 0.06,-0.11 0.07,-0.13 0.09,-0.13 0.1,-0.13 0.12,-0.14 0.14,-0.15 0.15,-0.16 0.16,-0.16 0.19,-0.18 0.2,-0.18 0.22,-0.19 0.23,-0.2 0.25,-0.22 0.27,-0.22 0.29,-0.23 0.3,-0.25 0.33,-0.26 0.34,-0.27 0.36,-0.29 0.38,-0.29 0.4,-0.32 0.24,-0.19 0.24,-0.19 0.23,-0.2 0.24,-0.2 0.23,-0.2 0.23,-0.21 0.23,-0.2 0.23,-0.21 0.22,-0.21 0.22,-0.21 0.22,-0.22 0.21,-0.21 0.21,-0.21 0.21,-0.22 0.2,-0.21 0.2,-0.22 0.2,-0.21 0.18,-0.21 0.19,-0.21 0.18,-0.21 0.17,-0.21 0.17,-0.21 0.17,-0.2 0.15,-0.21 0.15,-0.2 0.15,-0.19 0.14,-0.2 0.13,-0.19 0.13,-0.19 0.11,-0.18 0.11,-0.18 0.11,-0.18 0.09,-0.17 0.09,-0.17 0.08,-0.16 0.07,-0.15 0.06,-0.16 0.05,-0.14 0.05,-0.14 0.03,-0.13 0.04,-0.13 0.05,-0.13 0.04,-0.12 0.05,-0.12 0.06,-0.12 0.05,-0.12 0.06,-0.12 0.06,-0.11 0.07,-0.11 0.06,-0.11 0.07,-0.11 0.07,-0.1 0.07,-0.1 0.08,-0.09 0.08,-0.1 0.08,-0.09 0.08,-0.09 0.09,-0.08 0.08,-0.09 0.09,-0.07 0.09,-0.08 0.1,-0.07 0.09,-0.07 0.1,-0.07 0.09,-0.06 0.1,-0.06 0.11,-0.05 0.1,-0.05 0.1,-0.05 0.11,-0.05 0.11,-0.04 0.11,-0.03 0.11,-0.03 0.11,-0.03 0.12,-0.02 0.11,-0.02 0.12,-0.02 0.11,-0.01 0.12,-0.01 h 0.12 0.11 l 0.12,-0.01 0.13,-0.02 0.13,-0.03 0.13,-0.03 0.14,-0.04 0.14,-0.05 0.15,-0.05 0.16,-0.06 0.15,-0.06 0.16,-0.07 0.17,-0.08 0.17,-0.08 0.17,-0.09 0.17,-0.09 0.18,-0.1 0.18,-0.11 0.18,-0.11 0.18,-0.11 0.19,-0.12 0.19,-0.13 0.19,-0.13 0.19,-0.13 0.19,-0.14 0.19,-0.14 0.2,-0.15 0.19,-0.15 0.2,-0.15 0.19,-0.16 0.19,-0.16 0.2,-0.16 0.19,-0.17 0.19,-0.17 0.19,-0.18 0.19,-0.17 0.19,-0.18 0.19,-0.18 0.19,-0.19 0.18,-0.19 0.18,-0.18 4.26,-4.66 -6.12,-4.52 -0.37,-0.28 -0.35,-0.28 -0.34,-0.27 -0.33,-0.27 -0.32,-0.26 -0.32,-0.27 -0.3,-0.27 -0.3,-0.26 -0.28,-0.27 -0.28,-0.26 -0.27,-0.27 -0.27,-0.28 -0.25,-0.27 -0.26,-0.28 -0.24,-0.28 -0.24,-0.29 -0.24,-0.29 -0.23,-0.29 -0.23,-0.31 -0.22,-0.31 -0.22,-0.32 -0.22,-0.32 -0.21,-0.34 -0.22,-0.34 -0.21,-0.36 -0.21,-0.36 -0.21,-0.38 -0.21,-0.38 -0.21,-0.4 -0.21,-0.41 -0.21,-0.43 -0.21,-0.44 -0.21,-0.45 -0.22,-0.47 -0.22,-0.48 -0.22,-0.5 -0.22,-0.51 -0.23,-0.54 -0.24,-0.55 -0.23,-0.57 -3.86,-9.71 1.6,-13.84 0.06,-0.58 0.06,-0.58 0.07,-0.59 0.08,-0.59 0.07,-0.59 0.08,-0.59 0.08,-0.59 0.09,-0.59 0.09,-0.59 0.09,-0.59 0.09,-0.59 0.1,-0.58 0.1,-0.58 0.1,-0.58 0.1,-0.57 0.1,-0.56 0.11,-0.56 0.1,-0.56 0.11,-0.54 0.11,-0.54 0.11,-0.53 0.11,-0.52 0.12,-0.51 0.11,-0.5 0.11,-0.49 0.11,-0.48 0.12,-0.46 0.11,-0.46 0.11,-0.44 0.11,-0.42 0.12,-0.41 0.11,-0.4 0.11,-0.38 0.11,-0.36 0.11,-0.34 0.1,-0.33 0.11,-0.31 0.1,-0.29 0.11,-0.27 0.1,-0.25 0.41,-0.88 0.43,-0.88 0.46,-0.86 0.48,-0.86 0.5,-0.84 0.52,-0.83 0.55,-0.82 0.56,-0.81 0.58,-0.79 0.6,-0.79 0.62,-0.76 0.64,-0.76 0.65,-0.74 0.68,-0.72 0.68,-0.71 0.71,-0.7 0.71,-0.67 0.74,-0.66 0.74,-0.65 0.76,-0.62 0.77,-0.61 0.79,-0.59 0.79,-0.57 0.81,-0.55 0.82,-0.53 0.83,-0.5 0.83,-0.49 0.85,-0.47 0.85,-0.44 0.86,-0.43 0.87,-0.4 0.88,-0.37 0.88,-0.35 0.88,-0.33 0.9,-0.31 0.89,-0.28 0.9,-0.25 0.9,-0.22 0.91,-0.21 0.91,-0.17 0.49,-0.08 0.49,-0.07 0.49,-0.07 0.49,-0.06 0.48,-0.05 0.48,-0.05 0.48,-0.05 0.49,-0.04 0.48,-0.04 0.48,-0.02 0.49,-0.03 0.5,-0.02 0.49,-0.01 h 0.51 0.51 0.51 l 0.53,0.02 0.53,0.02 0.55,0.02 0.56,0.03 0.56,0.04 0.58,0.05 0.6,0.05 0.6,0.06 0.63,0.06 0.64,0.07 0.65,0.08 0.67,0.09 0.7,0.09 0.71,0.1 0.73,0.11 0.75,0.11 0.78,0.12 0.8,0.13 0.82,0.14 0.84,0.14 0.88,0.15 0.9,0.16 0.92,0.17 0.95,0.18 0.51,0.1 0.49,0.09 0.47,0.1 0.46,0.1 0.43,0.09 0.42,0.1 0.41,0.1 0.39,0.1 0.38,0.11 0.36,0.1 0.35,0.11 0.35,0.12 0.33,0.12 0.33,0.12 0.31,0.13 0.31,0.14 0.31,0.15 0.29,0.15 0.3,0.16 0.29,0.17 0.29,0.18 0.28,0.19 0.29,0.2 0.29,0.21 0.28,0.22 0.29,0.24 0.29,0.25 0.3,0.26 0.3,0.28 0.31,0.29 0.31,0.3 0.32,0.32 0.33,0.34 0.34,0.36 0.34,0.37 0.36,0.39 0.37,0.41 0.39,0.43 0.39,0.45 0.42,0.46 0.25,0.3 0.26,0.3 0.26,0.32 0.27,0.33 0.28,0.33 0.28,0.35 0.29,0.35 0.29,0.36 0.29,0.37 0.3,0.38 0.3,0.38 0.31,0.39 0.3,0.39 0.31,0.4 0.31,0.41 0.31,0.4 0.31,0.41 0.31,0.42 0.31,0.41 0.31,0.42 0.31,0.42 0.31,0.42 0.3,0.42 0.3,0.42 0.31,0.43 0.29,0.42 0.3,0.41 0.29,0.42 0.28,0.41 0.29,0.41 0.27,0.41 0.27,0.41 0.27,0.39 0.26,0.4 0.25,0.39 0.25,0.38 0.24,0.37 0.23,0.37 0.22,0.36 0.21,0.36 5.19,8.38 -0.66,13.71 -0.05,0.99 -0.05,0.94 -0.04,0.9 -0.05,0.86 -0.04,0.81 -0.05,0.78 -0.04,0.73 -0.05,0.7 -0.05,0.66 -0.06,0.64 -0.05,0.6 -0.06,0.57 -0.07,0.55 -0.07,0.53 -0.08,0.5 -0.08,0.48 -0.09,0.46 -0.1,0.45 -0.1,0.43 -0.12,0.42 -0.12,0.41 -0.14,0.4 -0.14,0.4 -0.16,0.38 -0.17,0.39 -0.18,0.39 -0.19,0.39 -0.21,0.39 -0.22,0.39 -0.24,0.41 -0.25,0.41 -0.27,0.42 -0.29,0.44 -0.3,0.45 -0.32,0.47 -0.34,0.49 -0.35,0.51 -0.38,0.53 -0.4,0.56 -0.42,0.59 -5.72,8.11 4.26,-0.8 0.27,-0.04 0.26,-0.04 0.26,-0.04 0.26,-0.03 0.25,-0.02 0.26,-0.02 0.25,-0.01 h 0.25 0.25 l 0.26,0.01 0.25,0.02 0.26,0.03 0.26,0.04 0.26,0.04 0.27,0.05 0.27,0.06 0.28,0.07 0.28,0.08 0.29,0.09 0.3,0.1 0.3,0.1 0.31,0.12 0.32,0.13 0.33,0.14 0.34,0.14 0.35,0.16 0.36,0.17 0.37,0.18 0.39,0.2 0.39,0.2 0.42,0.22 0.42,0.23 0.44,0.24 0.46,0.25 0.47,0.26 0.48,0.28 0.51,0.29 0.52,0.31 0.54,0.32 0.56,0.33 0.79,0.48 0.8,0.5 0.81,0.52 0.8,0.53 0.81,0.56 0.81,0.56 0.81,0.58 0.8,0.58 0.79,0.6 0.79,0.6 0.78,0.6 0.77,0.61 0.76,0.62 0.74,0.61 0.73,0.61 0.71,0.61 0.69,0.6 0.66,0.59 0.65,0.59 0.62,0.58 0.59,0.56 0.56,0.55 0.54,0.54 0.5,0.52 0.47,0.5 0.43,0.48 0.4,0.46 0.35,0.44 0.32,0.41 0.27,0.38 0.23,0.36 0.18,0.32 0.14,0.3 0.08,0.26 0.04,0.22 -0.02,0.19 -0.07,0.15 -0.13,0.1 -0.19,0.07 -0.25,0.02 h -0.14 l -0.12,0.01 -0.12,0.01 -0.1,0.02 -0.1,0.02 -0.09,0.03 -0.07,0.03 -0.07,0.04 -0.06,0.04 -0.05,0.05 -0.03,0.06 -0.03,0.06 -0.02,0.07 -0.01,0.08 0.01,0.08 0.01,0.09 0.02,0.09 0.04,0.11 0.04,0.11 0.06,0.12 0.06,0.12 0.08,0.14 0.08,0.14 0.1,0.15 0.11,0.16 0.12,0.17 0.13,0.17 0.14,0.19 0.15,0.19 0.16,0.2 0.17,0.22 0.18,0.22 0.2,0.23 0.21,0.24 0.21,0.25 0.23,0.26 0.24,0.28 0.25,0.28 0.26,0.29 0.28,0.3 0.37,0.41 0.37,0.4 0.36,0.4 0.35,0.4 0.35,0.4 0.34,0.4 0.33,0.4 0.34,0.41 0.33,0.41 0.32,0.41 0.33,0.43 0.32,0.43 0.33,0.44 0.32,0.45 0.33,0.46 0.33,0.47 0.33,0.49 0.33,0.5 0.34,0.52 0.35,0.54 0.35,0.56 0.35,0.57 0.37,0.6 0.37,0.62 0.38,0.64 0.39,0.67 0.4,0.69 0.41,0.72 0.42,0.75 0.43,0.78 0.45,0.8 0.46,0.84 0.48,0.88 0.49,0.9 0.51,0.95 0.52,0.98 0.54,1.01 0.56,1.06 0.58,1.09 0.6,1.14 0.28,0.52 0.27,0.5 0.26,0.48 0.25,0.46 0.23,0.45 0.22,0.43 0.21,0.42 0.2,0.4 0.18,0.38 0.17,0.37 0.17,0.35 0.15,0.35 0.14,0.33 0.13,0.31 0.12,0.31 0.11,0.29 0.1,0.29 0.09,0.27 0.08,0.27 0.07,0.25 0.06,0.25 0.05,0.24 0.04,0.23 0.03,0.23 0.03,0.22 0.01,0.22 0.01,0.21 v 0.2 l -0.01,0.21 -0.02,0.19 -0.02,0.2 -0.04,0.2 -0.04,0.19 -0.04,0.19 -0.06,0.19 -0.06,0.19 -0.07,0.2 -0.07,0.19 -0.08,0.2 -0.09,0.19 -0.21,0.44 -0.24,0.43 -0.26,0.4 -0.28,0.39 -0.3,0.36 -0.33,0.35 -0.34,0.33 -0.36,0.31 -0.38,0.3 -0.4,0.27 -0.42,0.26 -0.43,0.23 -0.45,0.22 -0.46,0.2 -0.47,0.17 -0.49,0.16 -0.49,0.14 -0.51,0.12 -0.52,0.1 -0.53,0.08 -0.53,0.06 -0.54,0.04 -0.55,0.02 h -0.56 l -0.56,-0.02 -0.56,-0.04 -0.57,-0.07 -0.57,-0.08 -0.57,-0.1 -0.57,-0.13 -0.57,-0.14 -0.57,-0.17 -0.57,-0.18 -0.57,-0.21 -0.56,-0.23 -0.56,-0.25 -0.56,-0.28 -0.54,-0.29 -0.54,-0.32 -0.54,-0.34 -0.31,-0.22 -0.3,-0.21 -0.28,-0.19 -0.27,-0.18 -0.25,-0.16 -0.24,-0.15 -0.22,-0.13 -0.21,-0.12 -0.2,-0.1 -0.18,-0.09 -0.16,-0.08 -0.15,-0.06 -0.14,-0.05 -0.12,-0.03 -0.1,-0.02 -0.09,-0.01 -0.07,0.01 -0.06,0.03 -0.04,0.03 -0.03,0.05 -0.01,0.07 V 234 l 0.02,0.1 0.03,0.1 0.05,0.12 0.07,0.13 0.08,0.15 0.1,0.16 0.11,0.17 0.13,0.18 0.15,0.2 0.16,0.21 0.17,0.23 0.2,0.23 0.21,0.25 0.22,0.26 0.24,0.28 0.26,0.29 0.28,0.3 0.29,0.31 0.46,0.49 0.43,0.48 0.41,0.45 0.38,0.44 0.36,0.43 0.33,0.41 0.31,0.39 0.28,0.38 0.26,0.37 0.23,0.36 0.21,0.34 0.18,0.33 0.15,0.32 0.13,0.3 0.11,0.3 0.08,0.28 0.05,0.28 0.02,0.26 v 0.26 l -0.02,0.25 -0.06,0.24 -0.08,0.23 -0.1,0.23 -0.14,0.22 -0.16,0.21 -0.18,0.21 -0.22,0.2 -0.24,0.2 -0.27,0.19 -0.29,0.19 -0.33,0.19 -0.35,0.19 -0.37,0.18 -0.41,0.18 -0.43,0.18 -0.47,0.17 -0.49,0.18 -0.51,0.18 -0.55,0.18 -0.57,0.17 -0.29,0.1 -0.29,0.09 -0.31,0.09 -0.31,0.09 -0.32,0.09 -0.33,0.1 -0.34,0.09 -0.34,0.1 -0.36,0.09 -0.35,0.1 -0.37,0.09 -0.37,0.1 -0.37,0.09 -0.38,0.1 -0.38,0.1 -0.38,0.09 -0.39,0.09 -0.39,0.1 -0.39,0.09 -0.4,0.09 -0.39,0.1 -0.4,0.09 -0.39,0.09 -0.4,0.09 -0.39,0.08 -0.39,0.09 -0.39,0.09 -0.39,0.08 -0.39,0.08 -0.38,0.09 -0.38,0.08 -0.37,0.07 -0.37,0.08 -0.37,0.07 -0.35,0.08 -0.36,0.07 -0.34,0.06 -0.34,0.07 -0.33,0.06 -0.33,0.06 -0.33,0.07 -0.35,0.07 -0.35,0.07 -0.36,0.08 -0.37,0.08 -0.38,0.1 -0.39,0.09 -0.39,0.1 -0.4,0.1 -0.41,0.11 -0.41,0.12 -0.41,0.11 -0.42,0.12 -0.42,0.13 -0.43,0.13 -0.43,0.13 -0.43,0.13 -0.43,0.14 -0.44,0.14 -0.43,0.15 -0.43,0.14 -0.44,0.15 -0.43,0.15 -0.43,0.15 -0.43,0.16 -0.43,0.15 -0.42,0.16 -0.42,0.16 -0.41,0.16 -0.41,0.16 -0.41,0.16 -0.4,0.16 -0.39,0.16 -0.39,0.17 -0.38,0.16 -0.37,0.16 -0.36,0.16 -0.35,0.17 -0.35,0.16 -0.33,0.16 -0.42,0.19 -0.42,0.2 -0.42,0.19 -0.42,0.18 -0.43,0.18 -0.42,0.18 -0.42,0.18 -0.43,0.17 -0.42,0.16 -0.43,0.16 -0.43,0.16 -0.43,0.15 -0.43,0.15 -0.43,0.15 -0.43,0.14 -0.44,0.14 -0.43,0.13 -0.44,0.13 -0.44,0.13 -0.44,0.12 -0.44,0.12 -0.45,0.11 -0.44,0.11 -0.45,0.11 -0.45,0.1 -0.45,0.1 -0.46,0.09 -0.45,0.09 -0.46,0.09 -0.46,0.08 -0.47,0.08 -0.46,0.07 -0.47,0.07 -0.47,0.07 -0.47,0.06 -0.48,0.05 -0.48,0.06 -0.48,0.05 -0.49,0.04 -0.48,0.05 -0.89,0.08 -0.86,0.08 -0.82,0.07 -0.79,0.06 -0.75,0.05 -0.72,0.04 -0.69,0.04 -0.66,0.02 -0.63,0.02 h -0.61 l -0.57,-0.01 -0.55,-0.01 -0.52,-0.03 -0.49,-0.04 -0.47,-0.04 -0.44,-0.06 -0.42,-0.07 -0.4,-0.09 -0.38,-0.09 -0.35,-0.11 -0.34,-0.12 -0.31,-0.13 -0.3,-0.14 -0.27,-0.16 -0.26,-0.17 -0.25,-0.18 -0.22,-0.19 -0.22,-0.21 -0.2,-0.23 -0.18,-0.24 -0.17,-0.25 -0.16,-0.27 -0.15,-0.28 -0.14,-0.29 -0.13,-0.32 -0.12,-0.32 -0.11,-0.35 -0.11,-0.35 -0.09,-0.38 -0.1,-0.39 -0.12,-0.52 -0.14,-0.56 -0.17,-0.59 -0.19,-0.61 -0.21,-0.65 -0.23,-0.66 -0.25,-0.69 -0.27,-0.71 -0.29,-0.73 -0.3,-0.75 -0.31,-0.76 -0.34,-0.77 -0.34,-0.79 -0.36,-0.8 -0.37,-0.81 -0.38,-0.81 -0.39,-0.82 -0.4,-0.82 -0.41,-0.83 -0.41,-0.82 -0.43,-0.82 -0.42,-0.82 -0.44,-0.82 -0.43,-0.8 -0.44,-0.8 -0.44,-0.78 -0.45,-0.78 -0.44,-0.75 -0.44,-0.75 -0.44,-0.72 -0.44,-0.7 -0.43,-0.69 -0.43,-0.66 -0.43,-0.63 -0.42,-0.61 -0.41,-0.58 -0.4,-0.55 -0.4,-0.52 -0.38,-0.48 -0.38,-0.45 -0.3,-0.35 -0.29,-0.33 -0.28,-0.32 -0.27,-0.3 -0.26,-0.29 -0.24,-0.27 -0.24,-0.26 -0.23,-0.24 -0.22,-0.23 -0.21,-0.22 -0.21,-0.2 -0.19,-0.18 -0.19,-0.17 -0.19,-0.16 -0.17,-0.15 -0.17,-0.13 -0.17,-0.12 -0.16,-0.11 -0.16,-0.09 -0.15,-0.08 -0.15,-0.08 -0.15,-0.06 -0.15,-0.05 -0.14,-0.03 -0.14,-0.03 -0.15,-0.02 h -0.14 -0.14 l -0.14,0.02 -0.14,0.02 -0.14,0.03 -0.15,0.04 -0.15,0.05 -0.15,0.06 -0.15,0.07 -0.16,0.08 -0.16,0.08 -0.17,0.09 -0.17,0.1 -0.17,0.11 -0.33,0.18 -0.37,0.17 -0.4,0.16 -0.43,0.15 -0.46,0.14 -0.5,0.12 -0.51,0.12 -0.54,0.1 -0.56,0.09 -0.58,0.08 -0.59,0.07 -0.61,0.06 -0.61,0.05 -0.63,0.04 -0.63,0.03 -0.64,0.01 -0.64,0.01 h -0.64 l -0.63,-0.01 -0.63,-0.03 -0.62,-0.03 -0.62,-0.04 -0.59,-0.05 -0.59,-0.06 -0.57,-0.07 -0.54,-0.08 -0.53,-0.09 -0.5,-0.1 -0.48,-0.1 -0.44,-0.12 -0.42,-0.12 -0.38,-0.13 -0.35,-0.14 -0.3,-0.15 -0.27,-0.16 -0.22,-0.16 -0.18,-0.18 -0.13,-0.18 -0.08,-0.19 -0.02,-0.19 0.01,-0.11 0.05,-0.1 0.07,-0.09 0.11,-0.09 0.13,-0.08 0.15,-0.07 0.18,-0.07 0.2,-0.07 0.22,-0.05 0.24,-0.05 0.26,-0.05 0.27,-0.04 0.28,-0.03 0.3,-0.02 0.31,-0.03 0.32,-0.01 0.33,-0.01 h 0.33 0.34 0.34 l 0.34,0.02 0.34,0.02 0.34,0.02 0.34,0.03 0.33,0.03 0.33,0.04 0.32,0.05 0.31,0.05 0.31,0.05 0.29,0.06 0.27,0.07 0.26,0.06 0.24,0.08 0.23,0.08 0.21,0.08 0.18,0.09 0.16,0.1 0.14,0.09 0.11,0.11 0.08,0.11 0.1,0.14 0.12,0.12 0.13,0.11 0.15,0.08 0.16,0.08 0.18,0.05 0.19,0.04 0.2,0.03 0.21,0.01 0.22,-0.01 0.23,-0.01 0.25,-0.04 0.24,-0.04 0.26,-0.06 0.26,-0.08 0.27,-0.08 0.27,-0.1 0.28,-0.11 0.28,-0.12 0.28,-0.13 0.28,-0.14 0.28,-0.16 0.29,-0.16 0.28,-0.17 0.28,-0.18 0.27,-0.19 0.28,-0.2 0.26,-0.21 0.27,-0.22 0.25,-0.22 0.25,-0.23 0.24,-0.24 0.23,-0.24 0.23,-0.25 0.21,-0.25 0.2,-0.26 0.19,-0.27 0.17,-0.27 0.17,-0.27 0.14,-0.28 0.08,-0.15 0.08,-0.14 0.07,-0.13 0.06,-0.13 0.07,-0.13 0.06,-0.12 0.05,-0.11 0.06,-0.11 0.05,-0.11 0.04,-0.1 0.04,-0.09 0.04,-0.09 0.04,-0.08 0.03,-0.08 0.02,-0.08 0.03,-0.07 0.01,-0.06 0.02,-0.06 0.01,-0.05 0.01,-0.05 v -0.05 -0.04 l -0.01,-0.04 v -0.03 l -0.02,-0.02 -0.02,-0.03 -0.02,-0.01 -0.02,-0.02 h -0.03 l -0.04,-0.01 h -0.03 l -0.05,0.01 -0.04,0.01 -0.06,0.01 -0.05,0.02 -0.06,0.02 -0.06,0.02 -0.07,0.03 -0.08,0.04 -0.07,0.04 -0.16,0.09 -0.14,0.08 -0.14,0.07 -0.13,0.06 -0.12,0.04 -0.1,0.04 -0.1,0.02 -0.09,0.02 h -0.08 l -0.08,-0.01 -0.06,-0.01 -0.06,-0.03 -0.04,-0.04 -0.04,-0.04 -0.03,-0.05 -0.02,-0.07 -0.01,-0.07 v -0.07 -0.09 l 0.02,-0.09 0.02,-0.11 0.03,-0.1 0.03,-0.12 0.05,-0.12 0.05,-0.13 0.07,-0.13 0.07,-0.14 0.07,-0.14 0.09,-0.15 0.09,-0.16 0.1,-0.15 0.11,-0.17 0.12,-0.16 0.12,-0.18 0.13,-0.17 0.14,-0.18 0.14,-0.18 0.15,-0.18 0.16,-0.19 0.17,-0.19 0.2,-0.23 0.2,-0.24 0.19,-0.24 0.19,-0.25 0.17,-0.25 0.17,-0.26 0.16,-0.25 0.15,-0.27 0.14,-0.26 0.14,-0.26 0.12,-0.27 0.12,-0.27 0.11,-0.26 0.1,-0.27 0.1,-0.27 0.08,-0.26 0.08,-0.27 0.06,-0.26 0.06,-0.26 0.05,-0.25 0.04,-0.26 0.03,-0.24 0.03,-0.25 0.01,-0.24 v -0.23 -0.23 l -0.02,-0.22 -0.02,-0.22 -0.04,-0.2 -0.04,-0.2 -0.05,-0.2 -0.07,-0.18 -0.07,-0.17 -0.08,-0.17 -0.1,-0.15 -0.1,-0.14 -0.11,-0.14 -0.13,-0.12 -0.13,-0.11 -0.15,-0.09 -0.07,-0.04 -0.08,-0.04 -0.1,-0.05 -0.1,-0.04 -0.11,-0.04 -0.13,-0.05 -0.12,-0.04 -0.14,-0.05 -0.15,-0.04 -0.15,-0.05 -0.16,-0.05 -0.17,-0.05 -0.18,-0.04 -0.18,-0.05 -0.19,-0.05 -0.19,-0.05 -0.2,-0.04 -0.21,-0.05 -0.21,-0.05 -0.22,-0.05 -0.22,-0.04 -0.22,-0.05 -0.24,-0.05 -0.23,-0.04 -0.24,-0.05 -0.24,-0.04 -0.25,-0.05 -0.25,-0.04 -0.25,-0.05 -0.26,-0.04 -0.26,-0.04 -0.26,-0.04 -0.26,-0.04 -0.26,-0.04 -0.27,-0.04 -0.27,-0.03 -0.26,-0.04 -0.27,-0.03 -0.27,-0.03 -0.27,-0.03 -0.45,-0.05 -0.43,-0.05 -0.41,-0.05 -0.38,-0.05 -0.37,-0.04 -0.35,-0.05 -0.34,-0.05 -0.32,-0.06 -0.3,-0.05 -0.29,-0.06 -0.27,-0.06 -0.26,-0.07 -0.24,-0.07 -0.24,-0.07 -0.22,-0.08 -0.21,-0.09 -0.2,-0.09 -0.19,-0.1 -0.18,-0.11 -0.17,-0.12 -0.17,-0.12 -0.16,-0.13 -0.15,-0.15 -0.15,-0.15 -0.14,-0.16 -0.14,-0.18 -0.14,-0.18 -0.13,-0.2 -0.13,-0.21 -0.13,-0.22 -0.13,-0.24 -0.13,-0.25 -0.13,-0.26 -0.13,-0.28 -0.14,-0.3 -0.14,-0.31 -0.14,-0.33 -0.14,-0.34 -0.15,-0.36 -0.16,-0.38 -0.09,-0.22 -0.1,-0.23 -0.09,-0.23 -0.1,-0.23 -0.1,-0.23 -0.11,-0.24 -0.1,-0.24 -0.11,-0.24 -0.11,-0.24 -0.12,-0.25 -0.11,-0.24 -0.11,-0.24 -0.12,-0.25 -0.12,-0.24 -0.12,-0.25 -0.12,-0.24 -0.12,-0.25 -0.12,-0.24 -0.12,-0.24 -0.12,-0.24 -0.12,-0.23 -0.13,-0.24 -0.12,-0.23 -0.12,-0.22 -0.12,-0.23 -0.13,-0.22 -0.12,-0.21 -0.12,-0.21 -0.12,-0.21 -0.11,-0.2 -0.12,-0.2 -0.12,-0.19 -0.11,-0.18 -0.12,-0.18 -0.11,-0.17 -0.11,-0.17 -0.1,-0.16 -0.11,-0.15 -0.1,-0.14 -0.1,-0.13 -2.4,-3.19 0.93,3.99 0.19,0.88 z m 68.06,-20.96 -0.33,0.02 -0.31,0.03 -0.31,0.04 -0.29,0.05 -0.27,0.06 -0.26,0.07 -0.25,0.07 -0.23,0.08 -0.21,0.1 -0.2,0.1 -0.17,0.11 -0.16,0.12 -0.14,0.12 -0.12,0.14 -0.1,0.14 -0.04,0.06 -0.05,0.06 -0.04,0.06 -0.05,0.05 -0.04,0.05 -0.05,0.05 -0.05,0.04 -0.05,0.05 -0.05,0.04 -0.05,0.04 -0.05,0.04 -0.05,0.04 -0.06,0.03 -0.05,0.03 -0.06,0.03 -0.05,0.03 -0.06,0.02 -0.05,0.03 -0.06,0.02 -0.06,0.02 -0.06,0.01 -0.05,0.02 -0.06,0.01 -0.06,0.01 -0.06,0.01 h -0.06 -0.05 -0.06 -0.06 -0.05 l -0.06,-0.01 -0.06,-0.01 -0.05,-0.01 -0.06,-0.01 -0.05,-0.02 -0.06,-0.02 -0.05,-0.02 -0.05,-0.03 -0.05,-0.02 -0.05,-0.03 -0.05,-0.04 -0.05,-0.03 -0.05,-0.04 -0.05,-0.03 -0.05,-0.02 -0.04,-0.03 -0.05,-0.02 -0.04,-0.02 -0.05,-0.01 -0.04,-0.01 -0.04,-0.01 -0.05,-0.01 -0.04,-0.01 h -0.04 -0.03 l -0.04,0.01 h -0.04 l -0.03,0.01 -0.04,0.01 -0.03,0.02 -0.03,0.01 -0.03,0.02 -0.03,0.02 -0.03,0.03 -0.03,0.02 -0.02,0.03 -0.03,0.03 -0.02,0.03 -0.02,0.04 -0.02,0.04 -0.01,0.04 -0.02,0.04 -0.01,0.04 -0.02,0.05 -0.01,0.05 v 0.05 l -0.01,0.05 -0.01,0.06 v 0.05 0.06 0.05 l -0.01,0.05 -0.01,0.06 -0.01,0.05 -0.02,0.05 -0.02,0.06 -0.02,0.05 -0.03,0.06 -0.03,0.05 -0.04,0.06 -0.04,0.05 -0.04,0.06 -0.04,0.06 -0.05,0.05 -0.05,0.06 -0.05,0.06 -0.06,0.05 -0.05,0.06 -0.07,0.05 -0.06,0.06 -0.07,0.05 -0.06,0.06 -0.07,0.05 -0.08,0.05 -0.07,0.06 -0.08,0.05 -0.08,0.05 -0.08,0.05 -0.08,0.04 -0.09,0.05 -0.09,0.05 -0.09,0.04 -0.09,0.04 -0.09,0.05 -0.09,0.04 -0.1,0.03 -0.09,0.04 -0.1,0.03 -0.1,0.04 -0.1,0.03 -0.16,0.07 -0.17,0.1 -0.18,0.11 -0.18,0.14 -0.18,0.16 -0.2,0.18 -0.19,0.19 -0.2,0.22 -0.2,0.23 -0.2,0.24 -0.21,0.26 -0.2,0.27 -0.21,0.28 -0.2,0.29 -0.2,0.3 -0.2,0.31 -0.2,0.32 -0.2,0.32 -0.19,0.33 -0.18,0.33 -0.19,0.34 -0.17,0.34 -0.17,0.34 -0.17,0.33 -0.15,0.34 -0.15,0.34 -0.14,0.33 -0.13,0.32 -0.12,0.32 -0.11,0.32 -0.09,0.31 -0.09,0.29 -0.07,0.29 -0.06,0.28 -0.05,0.26 -0.03,0.25 -0.02,0.24 v 0.22 l 0.01,0.21 0.03,0.19 0.01,0.05 0.01,0.05 v 0.04 0.04 0.04 0.04 l -0.01,0.04 v 0.03 l -0.01,0.04 -0.01,0.03 -0.02,0.03 -0.01,0.02 -0.02,0.03 -0.02,0.02 -0.02,0.02 -0.02,0.02 -0.03,0.02 -0.02,0.01 -0.03,0.02 -0.03,0.01 -0.03,0.01 h -0.03 l -0.04,0.01 h -0.03 -0.04 -0.03 -0.04 l -0.04,-0.01 h -0.04 l -0.05,-0.01 -0.04,-0.01 -0.04,-0.02 -0.05,-0.01 -0.04,-0.02 -0.05,-0.02 -0.05,-0.02 -0.04,-0.02 -0.05,-0.03 -0.05,-0.02 -0.05,-0.03 -0.05,-0.03 -0.05,-0.02 -0.06,-0.03 -0.06,-0.01 -0.05,-0.02 -0.06,-0.01 -0.07,-0.01 h -0.06 -0.06 -0.07 -0.06 l -0.07,0.01 -0.07,0.01 -0.07,0.01 -0.07,0.02 -0.07,0.02 -0.08,0.02 -0.07,0.03 -0.07,0.03 -0.08,0.03 -0.07,0.03 -0.08,0.04 -0.07,0.04 -0.08,0.04 -0.08,0.04 -0.07,0.05 -0.08,0.05 -0.08,0.05 -0.07,0.06 -0.08,0.05 -0.08,0.06 -0.07,0.06 -0.08,0.07 -0.07,0.06 -0.08,0.07 -0.07,0.07 -0.07,0.08 -0.07,0.07 -0.08,0.08 -0.07,0.08 -0.34,0.37 -0.37,0.35 -0.39,0.32 -0.41,0.3 -0.44,0.27 -0.45,0.25 -0.47,0.21 -0.49,0.2 -0.5,0.17 -0.51,0.14 -0.53,0.12 -0.53,0.1 -0.55,0.07 -0.55,0.05 -0.55,0.02 h -0.56 l -0.56,-0.02 -0.56,-0.04 -0.56,-0.07 -0.55,-0.09 -0.56,-0.11 -0.54,-0.13 -0.54,-0.15 -0.53,-0.18 -0.51,-0.19 -0.51,-0.22 -0.49,-0.24 -0.48,-0.26 -0.46,-0.27 -0.44,-0.3 -0.42,-0.32 -0.39,-0.33 -0.38,-0.36 -0.35,-0.37 -0.32,-0.39 -0.3,-0.41 -0.26,-0.43 -0.24,-0.45 -0.2,-0.46 -0.17,-0.48 -0.05,-0.15 -0.05,-0.14 -0.06,-0.14 -0.06,-0.13 -0.06,-0.13 -0.07,-0.12 -0.07,-0.12 -0.07,-0.11 -0.08,-0.11 -0.08,-0.11 -0.08,-0.1 -0.09,-0.1 -0.1,-0.09 -0.09,-0.09 -0.11,-0.08 -0.11,-0.08 -0.11,-0.08 -0.12,-0.07 -0.12,-0.07 -0.13,-0.06 -0.14,-0.06 -0.14,-0.06 -0.14,-0.05 -0.16,-0.05 -0.16,-0.05 -0.16,-0.04 -0.18,-0.04 -0.18,-0.03 -0.18,-0.04 -0.2,-0.03 -0.2,-0.02 -0.21,-0.03 -0.21,-0.02 -0.23,-0.01 -0.23,-0.02 -0.24,-0.01 -0.25,-0.01 -0.26,-0.01 h -0.26 -0.28 l -0.2,-0.01 -0.2,-0.02 -0.21,-0.01 -0.21,-0.02 -0.22,-0.02 -0.21,-0.02 -0.22,-0.03 -0.22,-0.03 -0.21,-0.03 -0.23,-0.03 -0.22,-0.03 -0.22,-0.04 -0.22,-0.03 -0.23,-0.04 -0.22,-0.04 -0.22,-0.05 -0.22,-0.04 -0.22,-0.05 -0.22,-0.04 -0.22,-0.05 -0.22,-0.05 -0.21,-0.06 -0.21,-0.05 -0.21,-0.05 -0.21,-0.06 -0.2,-0.06 -0.2,-0.06 -0.2,-0.06 -0.19,-0.06 -0.19,-0.06 -0.18,-0.06 -0.18,-0.07 -0.18,-0.06 -0.17,-0.07 -0.16,-0.06 -0.16,-0.07 -0.15,-0.07 -0.15,-0.07 -0.14,-0.06 -0.13,-0.07 -0.21,-0.11 -0.2,-0.1 -0.19,-0.09 -0.19,-0.09 -0.18,-0.08 -0.17,-0.07 -0.18,-0.06 -0.16,-0.06 -0.17,-0.04 -0.16,-0.04 -0.16,-0.03 -0.16,-0.02 -0.16,-0.02 h -0.15 l -0.16,0.01 -0.15,0.01 -0.16,0.03 -0.16,0.04 -0.16,0.04 -0.17,0.06 -0.16,0.07 -0.17,0.08 -0.17,0.09 -0.18,0.1 -0.19,0.11 -0.19,0.13 -0.19,0.13 -0.2,0.15 -0.21,0.16 -0.22,0.18 -0.22,0.18 -0.24,0.2 -0.24,0.22 -0.25,0.22 -0.27,0.24 -0.27,0.26 -0.29,0.26 -0.29,0.29 -0.31,0.29 -0.33,0.32 -4.92,4.79 3.06,6.25 0.12,0.26 0.12,0.26 0.13,0.25 0.12,0.26 0.13,0.25 0.12,0.25 0.13,0.25 0.12,0.24 0.13,0.25 0.13,0.24 0.13,0.23 0.12,0.24 0.13,0.23 0.13,0.22 0.12,0.22 0.13,0.22 0.12,0.21 0.12,0.21 0.13,0.2 0.12,0.2 0.12,0.19 0.11,0.19 0.12,0.18 0.11,0.17 0.11,0.17 0.11,0.16 0.11,0.15 0.1,0.15 0.11,0.14 0.09,0.13 0.1,0.13 0.09,0.12 0.09,0.1 0.09,0.1 0.08,0.09 0.08,0.09 0.07,0.07 0.07,0.07 0.07,0.05 0.06,0.04 0.07,0.03 0.07,0.02 0.08,0.01 0.08,0.01 h 0.1 l 0.1,-0.01 0.11,-0.01 0.11,-0.02 0.12,-0.03 0.13,-0.03 0.13,-0.04 0.14,-0.04 0.14,-0.05 0.15,-0.06 0.16,-0.06 0.16,-0.06 0.16,-0.07 0.17,-0.08 0.17,-0.08 0.18,-0.09 0.18,-0.09 0.19,-0.1 0.19,-0.1 0.19,-0.11 0.19,-0.11 0.2,-0.12 0.2,-0.12 0.21,-0.12 0.2,-0.13 0.21,-0.13 0.21,-0.14 0.22,-0.14 0.21,-0.14 0.22,-0.15 0.21,-0.15 0.22,-0.16 0.22,-0.16 0.22,-0.16 0.22,-0.16 0.22,-0.17 0.27,-0.23 0.27,-0.21 0.26,-0.21 0.25,-0.2 0.24,-0.19 0.23,-0.18 0.23,-0.17 0.22,-0.16 0.21,-0.16 0.2,-0.14 0.19,-0.14 0.19,-0.13 0.18,-0.12 0.17,-0.11 0.16,-0.1 0.16,-0.09 0.15,-0.09 0.14,-0.07 0.14,-0.07 0.13,-0.06 0.12,-0.05 0.11,-0.04 0.11,-0.04 0.1,-0.02 0.09,-0.02 0.09,-0.01 h 0.08 l 0.08,0.01 0.07,0.02 0.06,0.02 0.05,0.03 0.05,0.05 0.05,0.04 0.03,0.06 0.03,0.07 0.03,0.07 0.02,0.08 0.01,0.09 0.01,0.1 v 0.11 0.09 0.09 l -0.02,0.09 -0.01,0.1 -0.02,0.09 -0.02,0.1 -0.03,0.1 -0.03,0.09 -0.04,0.1 -0.04,0.1 -0.04,0.1 -0.04,0.1 -0.05,0.1 -0.06,0.1 -0.05,0.11 -0.06,0.1 -0.06,0.1 -0.07,0.1 -0.07,0.1 -0.07,0.1 -0.07,0.1 -0.08,0.1 -0.08,0.1 -0.08,0.09 -0.08,0.1 -0.09,0.09 -0.09,0.1 -0.09,0.09 -0.09,0.09 -0.09,0.1 -0.1,0.08 -0.1,0.09 -0.1,0.09 -0.1,0.08 -0.1,0.08 -0.11,0.08 -0.1,0.08 -0.11,0.08 -0.11,0.07 -0.11,0.07 -0.25,0.17 -0.24,0.16 -0.22,0.16 -0.22,0.16 -0.2,0.15 -0.18,0.15 -0.17,0.14 -0.16,0.14 -0.15,0.14 -0.13,0.13 -0.12,0.13 -0.1,0.13 -0.1,0.12 -0.07,0.12 -0.07,0.12 -0.05,0.11 -0.04,0.11 -0.03,0.11 -0.01,0.1 v 0.1 l 0.02,0.09 0.02,0.09 0.04,0.09 0.06,0.09 0.06,0.08 0.08,0.08 0.1,0.08 0.1,0.07 0.12,0.08 0.14,0.06 0.14,0.07 0.16,0.06 0.17,0.06 0.19,0.06 0.19,0.05 0.22,0.05 0.22,0.05 0.24,0.05 0.25,0.04 0.26,0.04 0.12,0.03 0.12,0.02 0.13,0.04 0.12,0.03 0.13,0.04 0.13,0.05 0.13,0.05 0.13,0.05 0.13,0.06 0.13,0.06 0.13,0.07 0.13,0.07 0.13,0.07 0.13,0.08 0.13,0.08 0.13,0.08 0.13,0.09 0.13,0.09 0.13,0.09 0.12,0.1 0.12,0.1 0.13,0.1 0.12,0.1 0.12,0.11 0.11,0.11 0.12,0.11 0.11,0.11 0.11,0.12 0.1,0.11 0.1,0.12 0.1,0.12 0.1,0.12 0.09,0.13 0.09,0.12 0.09,0.13 0.08,0.12 0.07,0.13 0.07,0.13 0.07,0.13 0.06,0.13 0.1,0.18 0.09,0.19 0.09,0.18 0.07,0.18 0.08,0.17 0.06,0.17 0.06,0.18 0.06,0.16 0.05,0.17 0.04,0.17 0.03,0.17 0.03,0.16 0.03,0.17 0.01,0.17 0.01,0.17 0.01,0.17 -0.01,0.17 v 0.17 l -0.02,0.18 -0.02,0.18 -0.03,0.18 -0.03,0.18 -0.05,0.19 -0.04,0.19 -0.06,0.2 -0.06,0.2 -0.07,0.21 -0.07,0.21 -0.08,0.22 -0.09,0.22 -0.09,0.23 -0.11,0.24 -0.1,0.24 -0.12,0.25 -0.12,0.26 -0.13,0.27 -0.13,0.28 -0.15,0.28 -0.15,0.3 -0.15,0.3 -2.8,5.06 4.66,4.12 0.35,0.33 0.36,0.36 0.38,0.42 0.4,0.45 0.41,0.5 0.42,0.53 0.43,0.57 0.44,0.6 0.45,0.64 0.46,0.67 0.47,0.7 0.47,0.72 0.48,0.76 0.49,0.77 0.48,0.8 0.49,0.82 0.5,0.84 0.49,0.86 0.49,0.87 0.49,0.88 0.49,0.9 0.48,0.9 0.48,0.92 0.47,0.92 0.47,0.92 0.46,0.93 0.45,0.93 0.45,0.93 0.43,0.93 0.42,0.92 0.41,0.91 0.39,0.91 0.38,0.9 0.36,0.88 0.35,0.88 0.33,0.86 0.31,0.84 0.3,0.82 0.27,0.8 0.25,0.78 0.1,0.31 0.1,0.3 0.09,0.29 0.1,0.27 0.1,0.27 0.09,0.25 0.1,0.24 0.1,0.22 0.1,0.22 0.1,0.21 0.1,0.19 0.1,0.19 0.11,0.17 0.11,0.17 0.11,0.16 0.12,0.15 0.12,0.14 0.12,0.13 0.13,0.13 0.13,0.12 0.14,0.11 0.14,0.1 0.15,0.1 0.15,0.09 0.16,0.09 0.17,0.08 0.17,0.08 0.18,0.07 0.19,0.07 0.2,0.06 0.2,0.06 0.22,0.05 0.22,0.06 0.23,0.05 0.24,0.04 0.25,0.05 0.27,0.04 0.27,0.05 0.28,0.04 0.29,0.04 0.19,0.02 0.19,0.01 0.19,0.02 0.19,0.02 0.18,0.01 0.18,0.02 0.19,0.01 0.18,0.01 0.18,0.02 0.17,0.01 0.18,0.01 h 0.17 l 0.17,0.01 0.16,0.01 h 0.17 l 0.16,0.01 h 0.15 0.15 l 0.15,0.01 h 0.15 0.14 l 0.13,-0.01 h 0.13 0.13 l 0.12,-0.01 h 0.12 l 0.11,-0.01 0.1,-0.01 h 0.1 l 0.09,-0.01 0.09,-0.01 0.08,-0.02 0.08,-0.01 0.07,-0.01 0.06,-0.02 0.05,-0.01 0.05,-0.02 0.04,-0.02 0.03,-0.01 0.02,-0.02 0.03,-0.03 0.03,-0.03 0.05,-0.03 0.05,-0.03 0.06,-0.03 0.07,-0.03 0.08,-0.03 0.09,-0.03 0.1,-0.03 0.1,-0.03 0.11,-0.03 0.12,-0.03 0.13,-0.03 0.13,-0.03 0.14,-0.03 0.15,-0.02 0.15,-0.03 0.16,-0.03 0.16,-0.03 0.17,-0.03 0.18,-0.02 0.18,-0.03 0.18,-0.03 0.19,-0.02 0.19,-0.03 0.2,-0.03 0.2,-0.02 0.21,-0.03 0.2,-0.02 0.21,-0.03 0.22,-0.02 0.22,-0.02 0.21,-0.03 0.23,-0.02 0.22,-0.02 0.22,-0.02 0.23,-0.03 0.23,-0.02 0.23,-0.02 0.23,-0.02 0.24,-0.02 0.25,-0.03 0.27,-0.04 0.27,-0.04 0.28,-0.05 0.29,-0.05 0.29,-0.06 0.3,-0.06 0.31,-0.07 0.32,-0.08 0.32,-0.08 0.33,-0.08 0.33,-0.09 0.33,-0.09 0.34,-0.1 0.35,-0.11 0.34,-0.1 0.35,-0.11 0.35,-0.12 0.36,-0.11 0.35,-0.13 0.36,-0.12 0.35,-0.13 0.36,-0.13 0.36,-0.13 0.35,-0.14 0.36,-0.14 0.35,-0.14 0.35,-0.15 0.35,-0.14 0.35,-0.15 0.34,-0.15 0.34,-0.15 0.34,-0.15 0.33,-0.16 0.33,-0.16 0.32,-0.15 0.31,-0.16 0.31,-0.16 0.3,-0.16 0.61,-0.32 0.61,-0.32 0.63,-0.31 0.63,-0.32 0.64,-0.31 0.65,-0.31 0.65,-0.31 0.65,-0.3 0.66,-0.3 0.66,-0.3 0.66,-0.29 0.66,-0.29 0.66,-0.28 0.65,-0.27 0.65,-0.27 0.65,-0.26 0.64,-0.26 0.64,-0.25 0.63,-0.24 0.61,-0.23 0.61,-0.22 0.6,-0.21 0.59,-0.21 0.57,-0.19 0.56,-0.18 0.54,-0.18 0.52,-0.16 0.51,-0.15 0.49,-0.14 0.47,-0.12 0.45,-0.11 0.43,-0.1 0.41,-0.09 0.38,-0.07 0.35,-0.06 0.33,-0.04 0.31,-0.03 0.27,-0.01 0.25,0.01 0.21,0.02 0.34,0.04 0.35,0.03 0.35,0.03 0.35,0.02 0.35,0.02 0.36,0.01 0.35,0.01 h 0.36 0.35 0.35 l 0.35,-0.01 0.35,-0.01 0.35,-0.02 0.34,-0.02 0.33,-0.02 0.33,-0.03 0.33,-0.03 0.32,-0.04 0.31,-0.04 0.3,-0.04 0.3,-0.05 0.28,-0.05 0.28,-0.05 0.26,-0.06 0.26,-0.06 0.24,-0.06 0.23,-0.07 0.22,-0.07 0.2,-0.07 0.19,-0.07 0.18,-0.08 0.16,-0.08 0.14,-0.08 0.13,-0.09 0.1,-0.09 0.09,-0.09 0.07,-0.09 0.06,-0.09 0.03,-0.1 0.01,-0.1 -0.01,-0.11 -0.04,-0.14 -0.05,-0.16 -0.08,-0.19 -0.09,-0.21 -0.12,-0.24 -0.13,-0.25 -0.15,-0.27 -0.17,-0.29 -0.19,-0.31 -0.2,-0.33 -0.22,-0.34 -0.23,-0.36 -0.24,-0.37 -0.26,-0.38 -0.27,-0.4 -0.28,-0.4 -0.29,-0.42 -0.3,-0.42 -0.31,-0.43 -0.32,-0.44 -0.32,-0.44 -0.34,-0.45 -0.34,-0.45 -0.34,-0.45 -0.35,-0.45 -0.35,-0.46 -0.36,-0.45 -0.36,-0.45 -0.36,-0.45 -0.37,-0.45 -0.36,-0.44 -0.37,-0.44 -0.36,-0.42 -0.36,-0.42 -0.36,-0.42 -0.35,-0.4 -0.36,-0.39 -0.34,-0.38 -0.35,-0.36 -0.21,-0.22 -0.23,-0.21 -0.24,-0.21 -0.25,-0.2 -0.27,-0.19 -0.27,-0.19 -0.28,-0.18 -0.29,-0.17 -0.3,-0.17 -0.3,-0.15 -0.32,-0.16 -0.31,-0.14 -0.32,-0.14 -0.33,-0.12 -0.33,-0.12 -0.33,-0.12 -0.33,-0.1 -0.34,-0.1 -0.33,-0.08 -0.34,-0.08 -0.33,-0.07 -0.33,-0.05 -0.33,-0.05 -0.33,-0.04 -0.32,-0.03 -0.32,-0.02 -0.31,-0.01 h -0.31 l -0.3,0.02 -0.29,0.02 -0.28,0.04 -0.28,0.04 -0.26,0.06 -0.26,0.07 -0.24,0.08 -0.23,0.09 -0.22,0.11 -0.21,0.12 -0.19,0.13 -0.18,0.14 -0.11,0.09 -0.11,0.08 -0.11,0.08 -0.11,0.07 -0.11,0.07 -0.1,0.06 -0.12,0.06 -0.11,0.05 -0.11,0.05 -0.11,0.04 -0.12,0.04 -0.11,0.04 -0.12,0.03 -0.12,0.02 -0.12,0.02 -0.12,0.02 -0.13,0.01 h -0.12 l -0.13,0.01 -0.14,-0.01 h -0.13 l -0.14,-0.02 -0.15,-0.01 -0.14,-0.02 -0.15,-0.03 -0.16,-0.03 -0.15,-0.03 -0.17,-0.04 -0.16,-0.04 -0.17,-0.05 -0.18,-0.05 -0.18,-0.05 -0.19,-0.06 -0.19,-0.07 -0.19,-0.06 -0.21,-0.08 -0.2,-0.07 -0.22,-0.08 -0.22,-0.08 -0.22,-0.09 -0.16,-0.07 -0.16,-0.07 -0.16,-0.08 -0.15,-0.07 -0.16,-0.08 -0.15,-0.07 -0.15,-0.08 -0.15,-0.08 -0.14,-0.08 -0.15,-0.08 -0.14,-0.08 -0.13,-0.08 -0.14,-0.08 -0.13,-0.08 -0.13,-0.08 -0.13,-0.08 -0.12,-0.08 -0.12,-0.09 -0.12,-0.08 -0.11,-0.08 -0.11,-0.08 -0.1,-0.07 -0.1,-0.08 -0.09,-0.08 -0.09,-0.08 -0.09,-0.07 -0.08,-0.08 -0.08,-0.07 -0.07,-0.07 -0.06,-0.07 -0.06,-0.07 -0.05,-0.07 -0.05,-0.06 -0.04,-0.07 -0.04,-0.06 -0.03,-0.06 -0.02,-0.06 -0.02,-0.05 -0.01,-0.06 -0.01,-0.05 v -0.05 -0.05 -0.04 l -0.01,-0.04 -0.01,-0.04 -0.01,-0.04 -0.01,-0.04 -0.02,-0.03 -0.01,-0.04 -0.02,-0.03 -0.02,-0.03 -0.02,-0.02 -0.02,-0.03 -0.03,-0.02 -0.03,-0.02 -0.02,-0.02 -0.03,-0.02 -0.03,-0.01 -0.04,-0.02 -0.03,-0.01 -0.04,-0.01 h -0.03 l -0.04,-0.01 h -0.04 -0.04 -0.05 -0.04 l -0.05,0.01 h -0.04 l -0.05,0.01 -0.05,0.01 -0.05,0.02 -0.05,0.01 -0.06,0.02 -0.05,0.02 -0.05,0.02 -0.06,0.02 -0.06,0.03 -0.06,0.02 -0.06,0.03 -0.05,0.03 -0.05,0.03 -0.04,0.02 -0.05,0.02 -0.05,0.03 -0.05,0.01 -0.05,0.02 -0.05,0.02 -0.05,0.01 -0.04,0.01 -0.05,0.01 h -0.05 l -0.04,0.01 h -0.05 -0.04 -0.04 l -0.04,-0.01 -0.04,-0.01 h -0.04 l -0.04,-0.02 -0.04,-0.01 -0.03,-0.02 -0.04,-0.01 -0.03,-0.02 -0.03,-0.03 -0.03,-0.02 -0.03,-0.03 -0.02,-0.03 -0.03,-0.03 -0.02,-0.03 -0.02,-0.04 -0.02,-0.04 -0.02,-0.04 -0.01,-0.05 -0.02,-0.04 -0.01,-0.05 -0.01,-0.05 v -0.06 -0.05 l -0.01,-0.06 v -0.05 l -0.01,-0.06 -0.01,-0.07 -0.02,-0.07 -0.03,-0.08 -0.03,-0.09 -0.04,-0.09 -0.04,-0.1 -0.04,-0.1 -0.06,-0.11 -0.05,-0.11 -0.06,-0.12 -0.07,-0.12 -0.07,-0.12 -0.08,-0.13 -0.08,-0.14 -0.08,-0.14 -0.09,-0.14 -0.09,-0.14 -0.09,-0.15 -0.1,-0.15 -0.11,-0.15 -0.1,-0.16 -0.11,-0.16 -0.11,-0.16 -0.12,-0.16 -0.12,-0.17 -0.12,-0.17 -0.13,-0.16 -0.13,-0.17 -0.13,-0.17 -0.13,-0.17 -0.13,-0.18 -0.14,-0.17 -0.14,-0.17 -0.14,-0.17 -0.15,-0.17 -0.14,-0.18 -0.15,-0.17 -0.15,-0.17 -0.36,-0.43 -0.33,-0.43 -0.3,-0.43 -0.29,-0.42 -0.25,-0.42 -0.24,-0.41 -0.2,-0.41 -0.19,-0.4 -0.15,-0.39 -0.14,-0.4 -0.11,-0.38 -0.08,-0.38 -0.06,-0.38 -0.03,-0.37 -0.01,-0.36 0.01,-0.36 0.04,-0.36 0.06,-0.35 0.09,-0.34 0.11,-0.34 0.14,-0.34 0.16,-0.33 0.19,-0.32 0.21,-0.32 0.23,-0.31 0.26,-0.31 0.28,-0.3 0.31,-0.3 0.33,-0.29 0.36,-0.29 0.38,-0.28 0.4,-0.27 0.43,-0.27 0.45,-0.27 0.48,-0.26 0.5,-0.25 0.53,-0.25 0.54,-0.24 0.58,-0.24 0.59,-0.23 0.34,-0.13 0.32,-0.13 0.31,-0.13 0.31,-0.12 0.29,-0.13 0.28,-0.12 0.27,-0.13 0.26,-0.12 0.26,-0.12 0.24,-0.13 0.24,-0.12 0.22,-0.13 0.22,-0.12 0.21,-0.13 0.2,-0.13 0.19,-0.13 0.19,-0.13 0.18,-0.13 0.17,-0.13 0.16,-0.14 0.16,-0.14 0.15,-0.14 0.14,-0.14 0.14,-0.15 0.13,-0.15 0.12,-0.15 0.12,-0.16 0.11,-0.15 0.11,-0.17 0.1,-0.16 0.1,-0.18 0.09,-0.17 0.09,-0.18 0.08,-0.19 0.08,-0.19 0.08,-0.19 0.07,-0.2 0.07,-0.2 0.06,-0.22 0.06,-0.21 0.04,-0.16 0.04,-0.16 0.04,-0.17 0.03,-0.16 0.04,-0.17 0.03,-0.16 0.04,-0.17 0.03,-0.16 0.03,-0.17 0.03,-0.16 0.02,-0.17 0.03,-0.16 0.02,-0.17 0.03,-0.16 0.02,-0.16 0.02,-0.16 0.02,-0.16 0.01,-0.16 0.02,-0.15 0.01,-0.16 0.01,-0.15 0.01,-0.14 0.01,-0.15 0.01,-0.14 v -0.14 -0.14 -0.13 -0.13 -0.13 L 210.79,195 v -0.12 l -0.01,-0.12 -0.02,-0.11 -0.01,-0.1 -0.02,-0.1 -0.02,-0.1 -0.02,-0.08 -0.02,-0.09 -0.03,-0.08 -0.03,-0.07 -0.03,-0.07 -0.02,-0.07 -0.02,-0.06 -0.02,-0.06 -0.02,-0.06 -0.02,-0.06 -0.01,-0.06 -0.01,-0.05 v -0.06 l -0.01,-0.05 v -0.04 -0.05 l 0.01,-0.04 v -0.04 l 0.01,-0.04 0.01,-0.04 0.02,-0.03 0.01,-0.03 0.02,-0.03 0.02,-0.03 0.02,-0.02 0.02,-0.02 0.02,-0.02 0.03,-0.01 0.03,-0.02 0.03,-0.01 0.03,-0.01 h 0.04 l 0.03,-0.01 h 0.04 l 0.04,0.01 h 0.03 l 0.05,0.01 0.04,0.01 0.04,0.02 0.05,0.01 0.04,0.02 0.05,0.02 0.05,0.03 0.05,0.03 0.06,0.03 0.06,0.02 0.05,0.02 0.06,0.02 0.05,0.02 0.06,0.01 h 0.05 l 0.05,0.01 h 0.05 0.05 l 0.05,-0.01 h 0.05 l 0.04,-0.01 0.05,-0.02 0.04,-0.01 0.04,-0.02 0.04,-0.03 0.04,-0.02 0.04,-0.03 0.03,-0.03 0.04,-0.04 0.03,-0.03 0.03,-0.04 0.03,-0.04 0.03,-0.05 0.02,-0.04 0.03,-0.05 0.02,-0.06 0.02,-0.05 0.02,-0.06 0.02,-0.06 0.02,-0.06 0.01,-0.06 0.01,-0.07 0.01,-0.07 0.01,-0.07 0.01,-0.07 v -0.07 l 0.01,-0.08 v -0.08 l 0.01,-0.16 0.02,-0.16 0.04,-0.15 0.06,-0.16 0.07,-0.16 0.08,-0.15 0.1,-0.15 0.11,-0.15 0.12,-0.14 0.13,-0.14 0.14,-0.14 0.15,-0.13 0.16,-0.13 0.17,-0.13 0.18,-0.12 0.19,-0.12 0.19,-0.11 0.2,-0.1 0.2,-0.1 0.21,-0.09 0.21,-0.09 0.21,-0.08 0.22,-0.07 0.22,-0.07 0.22,-0.06 0.22,-0.04 0.22,-0.05 0.23,-0.03 0.22,-0.02 0.21,-0.02 h 0.22 0.21 l 0.21,0.02 0.2,0.02 0.2,0.04 0.2,0.04 0.18,0.06 0.18,0.07 0.18,0.08 0.16,0.1 0.05,0.03 0.05,0.06 0.05,0.06 0.05,0.08 0.05,0.1 0.05,0.1 0.05,0.12 0.05,0.14 0.04,0.14 0.05,0.16 0.05,0.17 0.05,0.18 0.04,0.19 0.05,0.2 0.04,0.22 0.05,0.22 0.04,0.23 0.04,0.25 0.04,0.25 0.04,0.26 0.04,0.27 0.04,0.27 0.04,0.29 0.03,0.29 0.04,0.3 0.03,0.3 0.03,0.32 0.04,0.32 0.03,0.32 0.02,0.33 0.03,0.34 0.03,0.34 0.02,0.34 0.02,0.35 0.02,0.36 0.02,0.35 0.02,0.36 0.01,0.37 0.01,0.36 0.01,0.37 0.01,0.56 v 0.53 0.5 0.48 l 0.01,0.46 v 0.44 l 0.01,0.4 0.01,0.39 0.01,0.36 0.01,0.35 0.02,0.31 0.01,0.3 0.02,0.27 0.02,0.26 0.02,0.23 0.02,0.21 0.03,0.19 0.03,0.17 0.03,0.15 0.03,0.13 0.03,0.11 0.04,0.09 0.03,0.07 0.05,0.05 0.04,0.04 0.04,0.01 h 0.05 l 0.05,-0.01 0.06,-0.04 0.05,-0.05 0.06,-0.07 0.07,-0.08 0.06,-0.1 0.07,-0.12 0.07,-0.13 0.08,-0.14 0.07,-0.17 0.09,-0.17 0.08,-0.19 0.09,-0.2 0.06,-0.14 0.06,-0.14 0.05,-0.14 0.06,-0.14 0.05,-0.14 0.06,-0.14 0.05,-0.13 0.05,-0.14 0.05,-0.14 0.05,-0.13 0.05,-0.13 0.05,-0.14 0.04,-0.13 0.05,-0.13 0.04,-0.12 0.04,-0.13 0.04,-0.13 0.04,-0.12 0.04,-0.12 0.03,-0.12 0.04,-0.11 0.03,-0.12 0.03,-0.11 0.03,-0.11 0.03,-0.1 0.02,-0.11 0.03,-0.1 0.02,-0.09 0.02,-0.1 0.02,-0.09 0.02,-0.09 0.02,-0.08 0.01,-0.08 0.01,-0.08 0.01,-0.07 0.01,-0.07 0.01,-0.06 v -0.06 l 0.01,-0.06 v -0.05 l -0.01,-0.04 -0.01,-0.04 v -0.04 l -0.01,-0.04 v -0.04 -0.03 l 0.01,-0.04 v -0.03 l 0.01,-0.04 0.01,-0.03 0.01,-0.04 0.01,-0.03 0.01,-0.03 0.02,-0.03 0.02,-0.03 0.02,-0.03 0.02,-0.03 0.02,-0.03 0.03,-0.02 0.02,-0.03 0.03,-0.02 0.03,-0.03 0.03,-0.02 0.04,-0.02 0.03,-0.02 0.04,-0.02 0.04,-0.02 0.04,-0.01 0.04,-0.02 0.04,-0.01 0.05,-0.02 0.04,-0.01 0.05,-0.01 0.05,-0.01 0.05,-0.01 h 0.06 l 0.05,-0.01 h 0.06 0.05 0.06 l 0.05,-0.01 h 0.05 l 0.05,-0.01 0.04,-0.01 0.04,-0.01 0.04,-0.02 0.04,-0.01 0.04,-0.03 0.04,-0.02 0.03,-0.03 0.04,-0.02 0.03,-0.04 0.03,-0.03 0.02,-0.03 0.03,-0.04 0.02,-0.04 0.02,-0.05 0.02,-0.04 0.02,-0.05 0.02,-0.05 0.01,-0.05 0.01,-0.05 0.01,-0.06 0.01,-0.05 0.01,-0.06 v -0.06 -0.06 -0.07 -0.06 l -0.01,-0.07 v -0.07 l -0.01,-0.06 -0.01,-0.08 -0.02,-0.07 -0.02,-0.07 -0.01,-0.08 -0.03,-0.07 -0.02,-0.08 -0.03,-0.08 -0.02,-0.08 -0.03,-0.08 -0.02,-0.08 -0.01,-0.09 -0.01,-0.09 v -0.1 l 0.01,-0.09 0.01,-0.11 0.02,-0.1 0.03,-0.1 0.03,-0.11 0.04,-0.11 0.04,-0.11 0.05,-0.12 0.06,-0.12 0.06,-0.11 0.07,-0.12 0.07,-0.13 0.08,-0.12 0.09,-0.13 0.09,-0.12 0.09,-0.13 0.1,-0.13 0.11,-0.13 0.11,-0.13 0.11,-0.13 0.12,-0.13 0.13,-0.14 0.13,-0.13 0.13,-0.13 0.14,-0.14 0.14,-0.13 0.15,-0.14 0.15,-0.13 0.15,-0.13 0.16,-0.14 0.17,-0.13 0.16,-0.13 0.17,-0.14 0.18,-0.13 0.17,-0.13 0.3,-0.21 0.27,-0.21 0.27,-0.19 0.25,-0.19 0.23,-0.17 0.23,-0.17 0.2,-0.16 0.2,-0.16 0.18,-0.15 0.17,-0.14 0.15,-0.14 0.14,-0.13 0.13,-0.12 0.11,-0.13 0.11,-0.12 0.09,-0.11 0.08,-0.11 0.06,-0.11 0.05,-0.11 0.04,-0.11 0.03,-0.11 0.02,-0.1 0.01,-0.11 -0.01,-0.11 -0.02,-0.11 -0.03,-0.11 -0.04,-0.11 -0.05,-0.12 -0.06,-0.12 -0.07,-0.12 -0.09,-0.12 -0.09,-0.13 -0.11,-0.14 -0.11,-0.14 -0.13,-0.15 -0.13,-0.15 -0.15,-0.16 -0.16,-0.17 -0.16,-0.18 -0.18,-0.19 -0.3,-0.33 -0.32,-0.34 -0.34,-0.34 -0.35,-0.35 -0.38,-0.35 -0.39,-0.36 -0.4,-0.35 -0.42,-0.36 -0.43,-0.36 -0.44,-0.36 -0.44,-0.35 -0.46,-0.36 -0.46,-0.35 -0.46,-0.34 -0.47,-0.34 -0.47,-0.34 -0.47,-0.33 -0.48,-0.32 -0.47,-0.31 -0.46,-0.31 -0.46,-0.29 -0.46,-0.29 -0.45,-0.27 -0.44,-0.26 -0.43,-0.24 -0.42,-0.23 -0.4,-0.22 -0.4,-0.2 -0.37,-0.18 -0.37,-0.17 -0.34,-0.15 -0.33,-0.13 -0.3,-0.11 -0.28,-0.08 -0.26,-0.07 -0.24,-0.04 -0.21,-0.02 h -0.18 l -0.16,0.04 -0.12,0.05 -0.06,0.04 -0.06,0.04 -0.05,0.03 -0.06,0.03 -0.05,0.03 -0.05,0.03 -0.05,0.02 -0.05,0.02 -0.05,0.02 -0.04,0.02 -0.05,0.01 -0.04,0.01 -0.04,0.01 -0.04,0.01 -0.03,0.01 h -0.04 -0.03 -0.03 l -0.03,-0.01 h -0.03 l -0.03,-0.01 -0.02,-0.01 -0.03,-0.01 -0.02,-0.02 -0.02,-0.02 -0.01,-0.02 -0.02,-0.02 -0.01,-0.02 -0.02,-0.03 -0.01,-0.03 -0.01,-0.03 v -0.03 l -0.01,-0.03 v -0.04 -0.04 -0.04 -0.04 l 0.01,-0.05 0.01,-0.05 v -0.04 l 0.02,-0.04 0.02,-0.05 0.02,-0.04 0.01,-0.04 0.02,-0.04 0.01,-0.04 0.01,-0.04 0.01,-0.04 0.01,-0.05 v -0.04 l 0.01,-0.04 v -0.04 -0.04 -0.04 -0.04 -0.04 -0.04 l -0.01,-0.04 v -0.04 l -0.01,-0.04 -0.01,-0.04 -0.01,-0.03 -0.01,-0.04 -0.01,-0.03 -0.01,-0.04 -0.02,-0.03 -0.01,-0.03 -0.02,-0.03 -0.02,-0.03 -0.01,-0.03 -0.02,-0.02 -0.02,-0.03 -0.03,-0.02 -0.02,-0.02 -0.02,-0.02 -0.03,-0.02 -0.03,-0.02 -0.02,-0.01 -0.03,-0.01 -0.03,-0.01 -0.04,-0.02 -0.04,-0.01 -0.05,-0.02 -0.05,-0.02 -0.07,-0.03 -0.07,-0.02 -0.08,-0.04 -0.08,-0.03 -0.09,-0.04 -0.1,-0.03 -0.1,-0.05 -0.11,-0.04 -0.12,-0.05 -0.12,-0.05 -0.12,-0.05 -0.13,-0.05 -0.14,-0.06 -0.14,-0.06 -0.15,-0.06 -0.15,-0.06 -0.31,-0.12 -0.16,-0.07 -0.17,-0.07 -0.17,-0.07 -0.17,-0.07 -0.18,-0.07 -0.17,-0.07 -0.19,-0.08 -0.18,-0.07 -0.19,-0.08 -0.18,-0.08 -0.2,-0.07 -0.19,-0.08 -0.19,-0.08 -0.2,-0.08 -0.19,-0.08 -0.2,-0.08 -0.2,-0.08 -0.2,-0.08 -0.43,-0.17 -0.43,-0.17 -0.44,-0.16 -0.44,-0.16 -0.44,-0.14 -0.44,-0.14 -0.45,-0.13 -0.44,-0.12 -0.44,-0.12 -0.44,-0.1 -0.43,-0.1 -0.44,-0.09 -0.43,-0.09 -0.42,-0.07 -0.42,-0.07 -0.42,-0.06 -0.41,-0.05 -0.4,-0.04 -0.4,-0.04 -0.39,-0.02 -0.38,-0.02 -0.37,-0.01 h -0.36 -0.35 z m 18.45,21.3 -0.17,0.07 -0.17,0.09 -0.18,0.11 -0.18,0.14 -0.19,0.16 -0.19,0.19 -0.19,0.2 -0.19,0.23 -0.19,0.24 -0.2,0.27 -0.19,0.29 -0.19,0.32 -0.2,0.33 -0.19,0.35 -0.19,0.37 -0.18,0.4 -0.19,0.41 -0.11,0.3 -0.11,0.28 -0.11,0.28 -0.09,0.26 -0.09,0.26 -0.08,0.25 -0.08,0.23 -0.06,0.23 -0.06,0.21 -0.06,0.21 -0.04,0.2 -0.04,0.19 -0.04,0.18 -0.02,0.18 -0.02,0.16 -0.01,0.16 -0.01,0.15 v 0.15 l 0.01,0.14 0.01,0.13 0.02,0.12 0.03,0.12 0.03,0.11 0.04,0.1 0.04,0.1 0.06,0.1 0.05,0.09 0.07,0.08 0.07,0.08 0.07,0.07 0.09,0.07 0.08,0.07 0.1,0.06 0.16,0.12 0.13,0.12 0.1,0.14 0.07,0.14 0.04,0.16 0.01,0.16 -0.02,0.17 -0.04,0.18 -0.08,0.18 -0.1,0.19 -0.12,0.19 -0.15,0.2 -0.17,0.2 -0.19,0.2 -0.21,0.21 -0.24,0.2 -0.25,0.21 -0.28,0.2 -0.29,0.21 -0.3,0.2 -0.33,0.2 -0.33,0.19 -0.36,0.2 -0.36,0.19 -0.38,0.18 -0.39,0.18 -0.4,0.17 -0.41,0.16 -0.42,0.15 -0.43,0.15 -0.43,0.13 -0.44,0.13 -0.44,0.11 -0.18,0.05 -0.17,0.06 -0.18,0.06 -0.18,0.06 -0.18,0.07 -0.18,0.07 -0.19,0.07 -0.19,0.08 -0.19,0.08 -0.19,0.08 -0.19,0.08 -0.18,0.09 -0.19,0.09 -0.19,0.09 -0.19,0.09 -0.19,0.1 -0.18,0.1 -0.18,0.09 -0.18,0.1 -0.18,0.1 -0.17,0.11 -0.18,0.1 -0.16,0.1 -0.17,0.1 -0.16,0.11 -0.15,0.1 -0.15,0.1 -0.14,0.1 -0.14,0.1 -0.13,0.11 -0.13,0.1 -0.12,0.09 -0.11,0.1 -0.2,0.18 -0.19,0.17 -0.17,0.16 -0.16,0.15 -0.14,0.14 -0.14,0.14 -0.12,0.14 -0.1,0.13 -0.09,0.12 -0.08,0.13 -0.06,0.12 -0.05,0.12 -0.04,0.12 -0.02,0.11 -0.01,0.12 0.01,0.12 0.02,0.12 0.04,0.12 0.05,0.13 0.06,0.13 0.08,0.14 0.09,0.14 0.11,0.15 0.13,0.15 0.13,0.16 0.16,0.17 0.16,0.18 0.19,0.19 0.19,0.2 0.22,0.2 0.22,0.23 0.25,0.23 0.26,0.25 0.16,0.15 0.17,0.16 0.15,0.16 0.16,0.15 0.14,0.16 0.15,0.15 0.14,0.16 0.13,0.15 0.13,0.15 0.12,0.14 0.12,0.15 0.11,0.14 0.1,0.14 0.1,0.14 0.1,0.13 0.09,0.13 0.08,0.13 0.07,0.12 0.07,0.12 0.06,0.12 0.06,0.11 0.05,0.1 0.04,0.1 0.04,0.1 0.03,0.09 0.02,0.09 0.01,0.07 0.01,0.08 v 0.06 l -0.01,0.07 -0.02,0.05 -0.02,0.05 -0.04,0.04 -0.04,0.04 -0.04,0.04 -0.03,0.05 -0.02,0.06 -0.02,0.07 -0.01,0.07 v 0.07 0.08 l 0.01,0.09 0.02,0.09 0.02,0.09 0.03,0.1 0.03,0.1 0.04,0.11 0.05,0.11 0.05,0.11 0.06,0.12 0.06,0.12 0.07,0.13 0.07,0.12 0.08,0.13 0.09,0.14 0.08,0.13 0.1,0.14 0.1,0.13 0.1,0.14 0.1,0.14 0.12,0.15 0.11,0.14 0.12,0.14 0.12,0.15 0.13,0.14 0.13,0.15 0.18,0.2 0.18,0.19 0.18,0.18 0.17,0.17 0.18,0.16 0.17,0.15 0.18,0.14 0.18,0.13 0.18,0.13 0.18,0.11 0.18,0.1 0.19,0.1 0.2,0.09 0.2,0.07 0.21,0.07 0.21,0.06 0.22,0.05 0.23,0.05 0.24,0.03 0.24,0.03 0.26,0.02 0.27,0.01 h 0.28 l 0.29,-0.01 0.3,-0.01 0.32,-0.02 0.33,-0.03 0.34,-0.03 0.36,-0.04 0.38,-0.05 0.39,-0.06 0.41,-0.06 0.42,-0.07 0.46,-0.07 0.44,-0.06 0.43,-0.04 0.42,-0.04 0.42,-0.03 0.41,-0.02 h 0.41 0.42 l 0.41,0.02 0.42,0.04 0.42,0.04 0.44,0.06 0.44,0.08 0.46,0.09 0.47,0.11 0.48,0.12 0.51,0.14 0.52,0.16 0.55,0.17 0.58,0.19 0.59,0.21 0.63,0.23 0.66,0.25 0.69,0.27 0.73,0.29 0.76,0.31 0.8,0.33 0.84,0.36 0.88,0.37 0.93,0.4 0.98,0.42 1.02,0.45 1.07,0.47 1.32,0.59 1.26,0.55 1.2,0.52 1.15,0.49 1.1,0.45 1.05,0.42 1,0.38 0.96,0.35 0.91,0.32 0.86,0.28 0.82,0.26 0.79,0.21 0.74,0.19 0.7,0.16 0.66,0.12 0.63,0.09 0.6,0.05 0.56,0.03 0.53,-0.01 0.51,-0.03 0.47,-0.07 0.45,-0.1 0.42,-0.13 0.4,-0.17 0.37,-0.19 0.36,-0.22 0.33,-0.26 0.32,-0.28 0.3,-0.31 0.28,-0.35 0.27,-0.37 0.26,-0.4 0.25,-0.44 0.12,-0.25 0.12,-0.27 0.1,-0.27 0.08,-0.27 0.08,-0.27 0.06,-0.28 0.05,-0.28 0.04,-0.28 0.03,-0.28 0.02,-0.27 v -0.28 l -0.01,-0.27 -0.01,-0.27 -0.03,-0.26 -0.04,-0.26 -0.05,-0.25 -0.06,-0.25 -0.07,-0.24 -0.08,-0.22 -0.1,-0.22 -0.1,-0.21 -0.11,-0.2 -0.11,-0.18 -0.13,-0.17 -0.14,-0.15 -0.14,-0.14 -0.16,-0.13 -0.16,-0.11 -0.17,-0.09 -0.18,-0.07 -0.19,-0.05 -0.19,-0.03 -0.2,-0.01 -0.08,-0.01 -0.11,-0.02 -0.13,-0.04 -0.17,-0.05 -0.19,-0.06 -0.22,-0.07 -0.25,-0.09 -0.28,-0.1 -0.3,-0.11 -0.32,-0.13 -0.34,-0.13 -0.37,-0.15 -0.39,-0.15 -0.41,-0.17 -0.44,-0.17 -0.45,-0.19 -0.46,-0.19 -0.49,-0.2 -0.5,-0.21 -0.52,-0.22 -0.54,-0.23 -0.54,-0.23 -0.57,-0.24 -0.57,-0.25 -0.59,-0.25 -0.59,-0.26 -0.61,-0.26 -0.62,-0.27 -0.62,-0.27 -0.63,-0.28 -0.64,-0.28 -0.65,-0.29 -0.65,-0.29 -0.64,-0.3 -0.65,-0.3 -0.64,-0.3 -0.65,-0.29 -0.64,-0.29 -0.64,-0.29 -0.64,-0.29 -0.64,-0.28 -0.63,-0.27 -0.62,-0.28 -0.62,-0.26 -0.61,-0.26 -0.6,-0.26 -0.59,-0.25 -0.57,-0.24 -0.57,-0.23 -0.55,-0.23 -0.54,-0.22 -0.53,-0.21 -0.51,-0.2 -0.49,-0.19 -0.47,-0.19 -0.45,-0.17 -0.44,-0.16 -0.41,-0.16 -0.39,-0.14 -0.37,-0.13 -0.34,-0.12 -0.32,-0.11 -0.29,-0.09 -0.27,-0.08 -0.24,-0.07 -0.21,-0.06 -0.43,-0.1 -0.41,-0.1 -0.41,-0.11 -0.39,-0.11 -0.38,-0.12 -0.37,-0.12 -0.35,-0.13 -0.34,-0.13 -0.33,-0.13 -0.31,-0.14 -0.3,-0.14 -0.28,-0.14 -0.27,-0.15 -0.25,-0.14 -0.24,-0.15 -0.22,-0.16 -0.21,-0.15 -0.18,-0.16 -0.18,-0.15 -0.15,-0.16 -0.14,-0.16 -0.12,-0.16 -0.11,-0.16 -0.08,-0.17 -0.07,-0.16 -0.05,-0.16 -0.03,-0.16 -0.02,-0.17 0.01,-0.16 0.03,-0.16 0.04,-0.16 0.07,-0.16 0.09,-0.16 0.05,-0.06 0.05,-0.05 0.05,-0.05 0.06,-0.05 0.06,-0.04 0.06,-0.04 0.06,-0.04 0.06,-0.03 0.06,-0.03 0.07,-0.02 0.07,-0.03 0.07,-0.01 0.07,-0.02 h 0.07 l 0.07,-0.01 h 0.08 0.07 l 0.08,0.01 0.08,0.01 0.08,0.02 0.08,0.02 0.08,0.02 0.08,0.03 0.08,0.03 0.08,0.03 0.08,0.04 0.09,0.05 0.08,0.05 0.08,0.05 0.09,0.06 0.08,0.06 0.09,0.07 0.08,0.07 0.12,0.1 0.11,0.09 0.11,0.08 0.09,0.06 0.1,0.05 0.08,0.03 0.08,0.03 h 0.07 0.07 l 0.06,-0.03 0.05,-0.03 0.05,-0.06 0.04,-0.07 0.04,-0.08 0.03,-0.11 0.02,-0.11 0.02,-0.14 0.01,-0.15 0.01,-0.17 v -0.19 -0.21 l -0.01,-0.23 -0.02,-0.24 -0.02,-0.27 -0.03,-0.28 -0.03,-0.3 -0.04,-0.32 -0.04,-0.35 -0.05,-0.36 -0.06,-0.39 -0.06,-0.4 -0.06,-0.43 -0.07,-0.45 -0.05,-0.31 -0.05,-0.32 -0.05,-0.32 -0.04,-0.32 -0.05,-0.32 -0.05,-0.32 -0.05,-0.31 -0.04,-0.32 -0.05,-0.32 -0.04,-0.31 -0.04,-0.31 -0.05,-0.31 -0.04,-0.3 -0.04,-0.3 -0.04,-0.3 -0.04,-0.29 -0.03,-0.28 -0.04,-0.28 -0.03,-0.27 -0.03,-0.26 -0.03,-0.26 -0.03,-0.25 -0.02,-0.24 -0.03,-0.23 -0.02,-0.22 -0.02,-0.22 -0.02,-0.2 -0.01,-0.19 -0.01,-0.18 -0.01,-0.16 -0.01,-0.16 -0.01,-0.14 v -0.13 l -0.02,-0.32 -0.03,-0.3 -0.04,-0.27 -0.06,-0.25 -0.07,-0.22 -0.08,-0.2 -0.09,-0.17 -0.1,-0.15 -0.11,-0.12 -0.13,-0.1 -0.12,-0.07 -0.14,-0.05 -0.15,-0.02 h -0.15 l -0.16,0.02 z m 17.31,3.67 -0.4,0.28 -0.45,0.4 -0.5,0.51 -0.56,0.65 -0.64,0.78 -0.73,0.92 -0.83,1.06 -0.94,1.22 -5.46,7.05 14.37,6.79 1.46,0.69 1.41,0.67 1.38,0.64 1.31,0.61 1.26,0.58 1.19,0.55 1.12,0.5 1.03,0.47 0.95,0.42 0.85,0.37 0.75,0.32 0.63,0.26 0.52,0.21 0.4,0.14 0.26,0.08 0.12,0.01 0.01,-0.1 -0.05,-0.22 -0.12,-0.31 -0.18,-0.41 -0.24,-0.5 -0.29,-0.58 -0.35,-0.67 -0.39,-0.74 -0.44,-0.8 -0.49,-0.87 -0.52,-0.93 -0.55,-0.98 -0.59,-1.03 -0.62,-1.06 -0.64,-1.11 -0.66,-1.13 -0.7,-1.15 -0.71,-1.14 -0.71,-1.12 -0.7,-1.11 -0.7,-1.07 -0.68,-1.05 -0.66,-0.99 -0.65,-0.95 -0.61,-0.9 -0.59,-0.83 -0.55,-0.76 -0.51,-0.68 -0.46,-0.6 -0.42,-0.51 -0.36,-0.41 -0.31,-0.3 -0.47,-0.42 -0.42,-0.36 -0.39,-0.28 -0.36,-0.2 -0.35,-0.12 -0.34,-0.03 -0.35,0.07 z m -110.17,0.9 -3.06,3.06 3.06,4.26 3.2,4.26 0.93,-5.73 0.44,-3.32 v -2.39 l -0.46,-1.45 -0.91,-0.51 -1.37,0.43 z m 56.55,-17.87 -0.23,0.1 -0.24,0.12 -0.25,0.15 -0.24,0.17 -0.23,0.17 -0.31,0.17 -0.54,0.19 -0.75,0.18 -0.91,0.17 -1.04,0.15 -1.13,0.12 -1.18,0.08 -4.1,0.29 -2.84,0.23 -1.71,0.26 -0.73,0.34 0.09,0.51 0.79,0.76 1.32,1.07 1.64,1.3 1.46,0.82 1.38,0.33 1.39,-0.17 1.49,-0.68 1.69,-1.2 1.99,-1.73 0.97,-0.89 0.86,-0.83 0.71,-0.75 0.56,-0.62 0.37,-0.48 0.17,-0.31 -0.05,-0.11 -0.18,0.02 z m -19.03,-83.72 -0.62,0.01 -0.61,0.02 -0.59,0.02 -0.59,0.03 -0.57,0.03 -0.55,0.04 -0.54,0.04 -0.52,0.05 -0.51,0.05 -0.48,0.06 -0.47,0.07 -0.45,0.07 -0.43,0.08 -0.4,0.08 -0.38,0.08 -0.26,0.08 -0.28,0.1 -0.3,0.12 -0.32,0.14 -0.34,0.15 -0.35,0.17 -0.36,0.18 -0.39,0.2 -0.39,0.22 -0.41,0.22 -0.42,0.25 -0.42,0.25 -0.44,0.26 -0.45,0.28 -0.45,0.28 -0.46,0.3 -0.46,0.3 -0.47,0.32 -0.47,0.32 -0.48,0.32 -0.47,0.33 -0.48,0.34 -0.47,0.34 -0.47,0.35 -0.47,0.35 -0.46,0.35 -0.46,0.35 -0.45,0.36 -0.45,0.35 -0.44,0.36 -0.43,0.35 -0.41,0.35 -0.41,0.35 -0.39,0.35 -0.38,0.34 -0.37,0.34 -0.35,0.33 -0.34,0.33 -0.31,0.32 -0.3,0.31 -0.7,0.79 -0.68,0.85 -0.66,0.91 -0.63,0.97 -0.62,1.01 -0.59,1.06 -0.57,1.11 -0.54,1.15 -0.53,1.2 -0.5,1.22 -0.47,1.26 -0.45,1.29 -0.42,1.32 -0.4,1.34 -0.37,1.37 -0.35,1.38 -0.32,1.39 -0.29,1.41 -0.26,1.42 -0.23,1.42 -0.21,1.43 -0.17,1.42 -0.15,1.42 -0.12,1.42 -0.08,1.4 -0.05,1.4 -0.03,1.37 0.01,1.36 0.05,1.34 0.07,1.31 0.11,1.29 0.14,1.25 0.18,1.22 0.21,1.19 0.25,1.14 0.28,1.1 0.32,1.05 0.36,1.01 0.39,0.95 0.43,0.9 0.08,0.14 0.08,0.14 0.08,0.14 0.07,0.14 0.08,0.15 0.07,0.14 0.07,0.15 0.07,0.15 0.07,0.14 0.07,0.15 0.07,0.14 0.06,0.15 0.07,0.14 0.06,0.15 0.06,0.14 0.06,0.14 0.05,0.14 0.06,0.14 0.05,0.14 0.05,0.14 0.05,0.13 0.05,0.13 0.04,0.13 0.05,0.13 0.04,0.12 0.03,0.12 0.04,0.12 0.03,0.11 0.04,0.12 0.02,0.1 0.03,0.11 0.02,0.1 0.02,0.09 0.02,0.1 0.02,0.08 0.01,0.09 0.01,0.07 0.01,0.08 v 0.07 l 0.01,0.06 0.01,0.14 0.03,0.16 0.05,0.17 0.08,0.18 0.09,0.2 0.12,0.2 0.13,0.21 0.15,0.22 0.17,0.24 0.19,0.24 0.21,0.25 0.23,0.26 0.24,0.27 0.26,0.27 0.27,0.28 0.29,0.29 0.31,0.3 0.32,0.3 0.34,0.31 0.35,0.31 0.36,0.32 0.38,0.33 0.39,0.33 0.4,0.33 0.41,0.34 0.43,0.34 0.44,0.34 0.44,0.35 0.46,0.34 0.47,0.35 0.48,0.36 0.49,0.35 0.49,0.35 0.51,0.36 0.51,0.35 0.52,0.36 0.53,0.35 0.53,0.35 0.54,0.36 0.55,0.35 0.38,0.24 0.37,0.23 0.37,0.23 0.35,0.21 0.35,0.2 0.34,0.2 0.34,0.18 0.33,0.17 0.33,0.17 0.33,0.16 0.33,0.15 0.33,0.14 0.33,0.13 0.33,0.12 0.34,0.12 0.35,0.11 0.35,0.11 0.36,0.09 0.38,0.1 0.38,0.08 0.39,0.08 0.4,0.07 0.42,0.07 0.44,0.07 0.45,0.06 0.47,0.05 0.49,0.05 0.51,0.05 0.53,0.04 0.55,0.04 0.57,0.04 0.6,0.03 0.63,0.03 0.65,0.03 0.68,0.03 0.71,0.02 0.74,0.03 0.78,0.02 0.8,0.02 0.85,0.02 12.77,0.26 9.98,-5.85 0.58,-0.34 0.56,-0.33 0.55,-0.32 0.53,-0.32 0.51,-0.32 0.5,-0.31 0.49,-0.31 0.47,-0.31 0.46,-0.3 0.45,-0.3 0.43,-0.3 0.42,-0.3 0.41,-0.3 0.4,-0.29 0.39,-0.3 0.38,-0.29 0.37,-0.3 0.36,-0.3 0.36,-0.3 0.34,-0.3 0.34,-0.3 0.33,-0.31 0.33,-0.3 0.32,-0.32 0.31,-0.31 0.31,-0.32 0.31,-0.33 0.3,-0.33 0.3,-0.33 0.29,-0.35 0.3,-0.34 0.29,-0.36 0.29,-0.36 0.29,-0.37 0.29,-0.38 0.29,-0.39 0.3,-0.39 0.29,-0.4 0.29,-0.42 0.3,-0.42 0.35,-0.54 0.34,-0.51 0.31,-0.49 0.3,-0.47 0.29,-0.45 0.27,-0.43 0.25,-0.42 0.24,-0.4 0.23,-0.39 0.21,-0.38 0.2,-0.38 0.19,-0.36 0.17,-0.36 0.16,-0.36 0.16,-0.36 0.13,-0.35 0.13,-0.36 0.12,-0.37 0.11,-0.36 0.1,-0.38 0.09,-0.38 0.08,-0.4 0.08,-0.4 0.06,-0.43 0.06,-0.43 0.05,-0.46 0.05,-0.47 0.04,-0.5 0.03,-0.52 0.03,-0.54 0.02,-0.57 0.02,-0.6 0.02,-0.63 0.01,-0.66 0.01,-0.69 0.01,-0.73 v -0.76 -0.81 l 0.01,-0.84 v -0.89 l -0.02,-1.76 -0.06,-1.72 -0.09,-1.68 -0.13,-1.65 -0.16,-1.62 -0.2,-1.58 -0.23,-1.54 -0.27,-1.5 -0.31,-1.47 -0.35,-1.43 -0.37,-1.4 -0.42,-1.35 -0.45,-1.33 -0.49,-1.28 -0.52,-1.25 -0.55,-1.21 -0.6,-1.17 -0.62,-1.14 -0.67,-1.1 -0.7,-1.06 -0.73,-1.02 -0.77,-0.99 -0.8,-0.95 -0.84,-0.91 -0.87,-0.87 -0.91,-0.84 -0.95,-0.8 -0.97,-0.76 -1.02,-0.72 -1.04,-0.68 -1.09,-0.65 -1.11,-0.61 -1.15,-0.57 -1.19,-0.53 -1.22,-0.49 -1.25,-0.45 -1.29,-0.42 -1.32,-0.37 -1.36,-0.34 -1.39,-0.3 -0.59,-0.12 -0.61,-0.11 -0.62,-0.11 -0.63,-0.1 -0.63,-0.1 -0.65,-0.09 -0.65,-0.09 -0.66,-0.08 -0.67,-0.07 -0.67,-0.08 -0.67,-0.06 -0.68,-0.06 -0.68,-0.06 -0.68,-0.05 -0.68,-0.05 -0.68,-0.04 -0.68,-0.03 -0.67,-0.04 -0.67,-0.02 -0.67,-0.02 -0.66,-0.02 h -0.65 l -0.65,-0.01 h -0.64 z"
       id="bmN2Q1RTw"
       inkscape:connector-curvature="0" />
    <path
       d="m 169.42,110.44 c -2.13,3.32 -1.99,3.32 1.87,-0.4 2.26,-2 5.32,-3.6 6.78,-3.6 1.6,0 4.13,1.6 5.59,3.6 1.46,2.12 2.79,2.92 2.79,1.99 0,-1.86 -5.85,-8.25 -7.58,-8.25 -0.53,0 -2.53,0.8 -4.26,1.73 -1.73,0.8 -4.12,3.06 -5.19,4.93 z"
       id="b1Bv80flGy"
       inkscape:connector-curvature="0" />
    <path
       d="m 137.36,118.42 c 0,1.2 0.53,0.93 1.46,-1.07 1.73,-3.59 6.52,-5.05 10.11,-3.06 4.26,2.27 5.19,1.6 1.73,-1.19 -4.12,-3.46 -8.78,-3.33 -11.31,0.26 -1.19,1.6 -2.13,3.86 -1.99,5.06 z"
       id="a9k5gWRjG"
       inkscape:connector-curvature="0" />
    <path
       d="m 173.95,128.4 c -0.67,5.85 -0.54,6.12 0.66,2.79 1.33,-3.19 2,-3.59 5.32,-2.93 2,0.4 4.13,0.14 4.53,-0.53 0.4,-0.8 -0.13,-1.33 -1.2,-1.33 -1.2,0 -2.13,-1.2 -2.13,-2.66 0,-3.19 -5.05,-6.39 -5.85,-3.72 -0.4,0.93 -0.93,4.65 -1.33,8.38 z"
       id="ag4Wad50i"
       inkscape:connector-curvature="0" />
    <path
       d="m 144.28,136.65 c 0.53,0.4 0.93,-0.14 0.93,-1.33 0,-2.4 3.32,-3.06 4.65,-0.94 1.87,2.93 2.93,1.07 2.13,-3.59 -1.19,-7.05 -4.52,-7.32 -6.78,-0.4 -0.93,2.93 -1.33,5.72 -0.93,6.26 z"
       id="c24uTew3Rk"
       inkscape:connector-curvature="0" />
    <path
       d="m 153.19,152.21 c -0.49,0.15 -2.93,0.86 -7.32,2.13 4.79,-0.48 7.45,-0.74 7.99,-0.8 4.39,-0.39 9.18,-1.46 10.77,-2.39 4.39,-2.4 19.16,-16.23 19.16,-17.96 0,-1.47 7.59,3.06 9.58,5.85 1.87,2.53 1.07,15.3 -1.06,18.76 -0.15,0.22 -0.91,1.33 -2.26,3.33 -0.96,-1.84 -1.49,-2.86 -1.6,-3.06 -1.2,-2.4 -1.2,-3.59 0.13,-5.72 1.2,-1.73 1.33,-3.33 0.54,-4.66 -1.07,-1.73 -1.34,-1.73 -1.34,0.27 0,3.86 -2.39,3.99 -4.65,0.13 -0.14,-0.25 -0.85,-1.49 -2.13,-3.73 0.32,2.24 0.5,3.48 0.53,3.73 0.27,2 0.13,3.99 -0.53,4.39 -0.53,0.27 -0.8,1.46 -0.4,2.53 0.53,1.2 -0.67,2.26 -3.73,3.06 -3.72,1.06 -3.99,1.46 -1.86,2.26 1.73,0.8 3.86,0.4 6.39,-1.06 3.46,-2 3.72,-2 5.05,0.4 1.87,3.45 1.73,3.72 -2.66,5.98 -9.18,4.79 -27.14,1.47 -34.99,-6.52 -5.72,-5.98 -7.98,-5.72 -3.46,0.4 4.52,6.12 13.44,9.85 25.15,10.78 8.91,0.66 10.51,0.4 14.9,-2.53 2.79,-1.73 6.65,-5.19 8.65,-7.85 3.06,-4.12 3.59,-5.85 3.32,-12.24 -0.13,-3.99 -0.66,-8.25 -0.93,-9.45 -0.66,-2.13 -9.98,-7.98 -12.1,-7.71 -0.67,0.13 -4.93,3.99 -9.45,8.51 -9.18,9.05 -10.91,10.11 -21.69,13.17 z"
       id="a1yRgM9DUg"
       inkscape:connector-curvature="0" />
    <path
       d=""
       id="a1awsYrzY"
       inkscape:connector-curvature="0" />
  </defs>
  <g
     id="g4580"
     transform="matrix(0.09684804,0,0,0.09345488,81.679135,-78.51585)">
    <g
       id="g4484"
       transform="translate(0.97627478,1712.0372)">
      <use
         xlink:href="#m5bPjclsQx"
         id="use4478"
         style="opacity:1;fill:#ffffff;fill-opacity:1"
         x="0"
         y="0"
         width="100%"
         height="100%" />
      <g
         id="g4482">
        <use
           xlink:href="#m5bPjclsQx"
           id="use4480"
           style="opacity:1;fill-opacity:0;stroke:#000000;stroke-width:1;stroke-opacity:1"
           x="0"
           y="0"
           width="100%"
           height="100%" />
      </g>
    </g>
    <g
       id="g4492"
       transform="translate(0.97627478,1712.0372)">
      <use
         xlink:href="#a3AqiFPD9l"
         id="use4486"
         style="opacity:1;fill:#ffffff;fill-opacity:1"
         x="0"
         y="0"
         width="100%"
         height="100%" />
      <g
         id="g4490">
        <use
           xlink:href="#a3AqiFPD9l"
           id="use4488"
           style="opacity:1;fill-opacity:0;stroke:#000000;stroke-width:1;stroke-opacity:1"
           x="0"
           y="0"
           width="100%"
           height="100%" />
      </g>
    </g>
    <g
       id="g4500"
       transform="translate(0.97627478,1712.0372)">
      <use
         xlink:href="#b4AOeE8cne"
         id="use4494"
         style="opacity:1;fill:#ffffff;fill-opacity:1"
         x="0"
         y="0"
         width="100%"
         height="100%" />
      <g
         id="g4498">
        <use
           xlink:href="#b4AOeE8cne"
           id="use4496"
           style="opacity:1;fill-opacity:0;stroke:#000000;stroke-width:1;stroke-opacity:1"
           x="0"
           y="0"
           width="100%"
           height="100%" />
      </g>
    </g>
    <g
       id="g4508"
       transform="translate(0.97627478,1712.0372)">
      <use
         xlink:href="#d2zQgeadrC"
         id="use4502"
         style="opacity:1;fill:#ffffff;fill-opacity:1"
         x="0"
         y="0"
         width="100%"
         height="100%" />
      <g
         id="g4506">
        <use
           xlink:href="#d2zQgeadrC"
           id="use4504"
           style="opacity:1;fill-opacity:0;stroke:#ffffff;stroke-width:1;stroke-opacity:1"
           x="0"
           y="0"
           width="100%"
           height="100%" />
      </g>
    </g>
    <g
       id="g4532"
       transform="translate(0.97627478,1712.0372)">
      <use
         xlink:href="#bmN2Q1RTw"
         id="use4526"
         style="opacity:1;fill:#000000;fill-opacity:1"
         x="0"
         y="0"
         width="100%"
         height="100%" />
      <g
         id="g4530">
        <use
           xlink:href="#bmN2Q1RTw"
           id="use4528"
           style="opacity:1;fill-opacity:0;stroke:#000000;stroke-width:1;stroke-opacity:0"
           x="0"
           y="0"
           width="100%"
           height="100%" />
      </g>
    </g>
    <g
       id="g4540"
       transform="translate(0.97627478,1712.0372)">
      <use
         xlink:href="#b1Bv80flGy"
         id="use4534"
         style="opacity:1;fill:#000000;fill-opacity:1"
         x="0"
         y="0"
         width="100%"
         height="100%" />
      <g
         id="g4538">
        <use
           xlink:href="#b1Bv80flGy"
           id="use4536"
           style="opacity:1;fill-opacity:0;stroke:#000000;stroke-width:1;stroke-opacity:0"
           x="0"
           y="0"
           width="100%"
           height="100%" />
      </g>
    </g>
    <g
       id="g4548"
       transform="translate(0.97627478,1712.0372)">
      <use
         xlink:href="#a9k5gWRjG"
         id="use4542"
         style="opacity:1;fill:#000000;fill-opacity:1"
         x="0"
         y="0"
         width="100%"
         height="100%" />
      <g
         id="g4546">
        <use
           xlink:href="#a9k5gWRjG"
           id="use4544"
           style="opacity:1;fill-opacity:0;stroke:#000000;stroke-width:1;stroke-opacity:0"
           x="0"
           y="0"
           width="100%"
           height="100%" />
      </g>
    </g>
    <g
       id="g4556"
       transform="translate(0.97627478,1712.0372)">
      <use
         xlink:href="#ag4Wad50i"
         id="use4550"
         style="opacity:1;fill:#000000;fill-opacity:1"
         x="0"
         y="0"
         width="100%"
         height="100%" />
      <g
         id="g4554">
        <use
           xlink:href="#ag4Wad50i"
           id="use4552"
           style="opacity:1;fill-opacity:0;stroke:#000000;stroke-width:1;stroke-opacity:0"
           x="0"
           y="0"
           width="100%"
           height="100%" />
      </g>
    </g>
    <g
       id="g4564"
       transform="translate(0.97627478,1712.0372)">
      <use
         xlink:href="#c24uTew3Rk"
         id="use4558"
         style="opacity:1;fill:#000000;fill-opacity:1"
         x="0"
         y="0"
         width="100%"
         height="100%" />
      <g
         id="g4562">
        <use
           xlink:href="#c24uTew3Rk"
           id="use4560"
           style="opacity:1;fill-opacity:0;stroke:#000000;stroke-width:1;stroke-opacity:0"
           x="0"
           y="0"
           width="100%"
           height="100%" />
      </g>
    </g>
    <g
       id="g4572"
       transform="translate(0.97627478,1712.0372)">
      <use
         xlink:href="#a1yRgM9DUg"
         id="use4566"
         style="opacity:1;fill:#000000;fill-opacity:1"
         x="0"
         y="0"
         width="100%"
         height="100%" />
      <g
         id="g4570">
        <use
           xlink:href="#a1yRgM9DUg"
           id="use4568"
           style="opacity:1;fill-opacity:0;stroke:#000000;stroke-width:1;stroke-opacity:0"
           x="0"
           y="0"
           width="100%"
           height="100%" />
      </g>
    </g>
    <g
       id="g4578">
      <g
         id="g4576">
        <use
           xlink:href="#a1awsYrzY"
           id="use4574"
           style="opacity:1;fill-opacity:0;stroke:#4ea199;stroke-width:1;stroke-opacity:1"
           x="0"
           y="0"
           width="100%"
           height="100%" />
      </g>
    </g>
  </g>
</svg>
